<svg width="1181" height="1166" viewBox="0 0 1181 1166" fill="none" xmlns="http://www.w3.org/2000/svg">
<g clip-path="url(#clip0_5_2)">
<path d="M225.5 270.5L142 212.5L167.5 175.5L237 138.5L313.5 157L371.5 212.5L418 270.5L467 368L536.5 396L631.5 414.5L722 396L840 368L944.5 308L1046.5 231L1102.5 250L1128 298.5L1081.5 396L1102.5 442.5L1046.5 500.5L1060.5 539.5L1021 579V648.5L981.5 688V716L956 815.5L907.5 866.5L840 897L819.5 945.5L673 911L599 959.5L536.5 945.5L499.5 897L483 832L297.5 716L202.5 488.5L225.5 270.5Z" fill="#FFFBFB" stroke="black"/>
<path d="M217.5 189.5V198.5L220 209L229.5 217L244.5 215.5L252 205.5V189.5L239.5 181H228L217.5 189.5Z" fill="black" stroke="black"/>
<path d="M183 440.5L219.5 301.5H244L272.5 421.5L231 459.5L183 440.5Z" fill="#E50303" stroke="black"/>
<path d="M143 223.5L97.5 279L191 324.5L200.5 279L143 223.5Z" fill="#DFF93F" stroke="black"/>
<path d="M92 107.5L172 163L253.5 142L274.5 48.5L244 16.5L107 73.5L92 107.5Z" fill="#E60303" stroke="black"/>
<path d="M220.675 1.59265C211.775 4.59265 205.275 8.3927 198.875 14.2927L192.775 19.8927L186.875 18.2927C174.375 15.0928 159.875 16.8927 148.375 22.9927C140.875 27.0927 130.775 37.2926 127.075 44.5927L124.175 50.2927L117.675 50.5927C97.775 51.6926 78.075 66.5928 71.875 85.2927C65.075 105.493 70.375 126.693 85.675 141.093C89.475 144.793 95.075 148.993 97.975 150.393C100.775 151.893 112.075 157.993 122.875 163.993L142.675 174.993L139.775 179.093C136.275 184.293 131.675 192.893 129.375 198.493C127.675 202.993 123.175 206.793 66.775 253.193C52.875 264.693 40.675 275.493 39.575 277.093C33.675 286.793 38.375 300.293 48.975 304.193C51.275 304.993 81.075 314.293 115.175 324.893C149.275 335.393 177.275 344.093 177.475 344.193C177.575 344.393 176.775 347.093 175.575 350.393C172.175 360.093 162.875 394.193 161.175 402.893C156.775 426.393 161.175 443.493 175.575 459.093L181.275 465.293L183.475 479.793C186.275 497.793 191.375 521.493 196.675 541.193C201.875 560.193 215.075 599.893 221.175 614.893C259.575 708.993 336.675 788.193 439.675 839.093L460.275 849.293L462.575 858.793C477.175 919.593 507.775 960.693 546.575 971.593C550.575 972.793 554.075 973.893 554.275 974.093C554.475 974.193 538.175 999.993 518.175 1031.39C492.575 1071.19 480.975 1088.49 479.375 1088.99C478.175 1089.39 452.475 1091.79 422.175 1094.29C366.875 1098.99 365.175 1099.19 360.075 1103.49C350.675 1111.29 352.775 1128.19 363.675 1133.79C369.175 1136.59 372.475 1136.49 433.075 1131.29L485.875 1126.79L504.875 1142.59C529.775 1163.19 531.475 1164.49 536.775 1165.89C551.575 1169.79 564.575 1153.29 557.675 1139.39C556.175 1136.29 550.875 1131.39 536.775 1119.79C526.275 1111.29 517.775 1103.79 517.775 1103.29C517.675 1102.69 536.475 1072.99 559.475 1037.29L601.175 972.393L607.175 971.093C632.975 965.393 653.575 953.193 667.275 935.393L670.275 931.493L691.775 940.093C739.175 959.093 770.075 967.793 790.075 967.793H798.275L809.275 1032.89C815.275 1068.69 819.975 1098.09 819.675 1098.29C819.375 1098.49 797.775 1102.69 771.675 1107.79C719.375 1117.79 718.475 1118.09 714.375 1126.09C708.475 1137.59 716.175 1152.19 728.775 1153.49C731.775 1153.69 750.975 1150.49 787.375 1143.49L841.475 1133.09L869.775 1139.89C893.375 1145.59 898.575 1146.59 901.875 1145.89C916.075 1142.69 921.475 1125.49 911.775 1114.39C908.875 1111.09 903.375 1109.19 881.675 1103.79C869.875 1100.89 859.875 1098.19 859.375 1097.79C858.975 1097.49 853.375 1065.89 846.875 1027.69L835.175 958.293L843.275 950.293C849.775 943.893 852.175 940.593 855.575 933.793C857.775 929.093 860.175 922.393 860.875 918.793L862.075 912.293L873.575 906.793C901.575 893.493 923.575 878.093 943.775 857.893C967.875 833.693 983.075 809.293 992.575 779.493C999.675 757.393 1001.98 742.593 1002.08 716.993L1002.28 697.693L1009.98 690.993C1026.18 676.893 1035.98 659.593 1040.08 637.793C1042.08 627.493 1042.08 607.993 1040.17 597.293C1039.38 592.893 1038.67 588.593 1038.67 587.693C1038.67 586.693 1041.48 584.693 1046.28 582.393C1060.48 575.293 1071.58 561.193 1074.78 546.093C1076.28 538.493 1075.38 522.293 1072.88 513.493C1071.78 509.793 1071.28 506.793 1071.68 506.793C1072.08 506.793 1077.48 501.993 1083.68 495.993C1106.58 474.293 1117.97 453.593 1119.38 431.193C1120.07 419.893 1118.58 410.893 1114.08 399.593L1110.58 390.793L1117.08 378.593C1149.78 316.693 1151.88 267.593 1123.08 239.293C1104.08 220.593 1075.78 212.193 1049.08 217.293C1037.67 219.493 1029.77 222.293 1016.17 228.793C995.275 238.993 975.475 253.093 936.875 285.193C910.275 307.293 893.675 320.693 884.175 327.493C845.875 355.193 756.975 382.293 678.675 390.293C604.075 397.893 539.975 387.793 499.375 361.993C475.775 346.893 461.475 329.493 448.975 300.293C442.375 285.093 429.075 258.093 422.675 247.293C415.375 234.893 403.175 216.993 394.975 206.793C386.375 195.993 367.475 176.493 357.475 168.093C346.175 158.693 326.675 145.893 314.175 139.893C303.775 134.793 284.675 127.793 281.275 127.793C280.375 127.793 279.675 126.993 279.575 125.993C279.575 125.093 278.975 115.193 278.375 104.093C277.375 87.3927 277.375 83.4927 278.475 82.0927C283.975 74.7926 287.675 62.7927 287.675 52.1927C287.675 30.5928 272.975 9.79272 252.675 2.69275C243.675 -0.407227 228.375 -0.907349 220.675 1.59265ZM242.475 39.7927C249.675 44.1927 251.875 53.4927 247.175 59.8927C237.975 72.4927 238.075 72.1927 239.975 101.793C240.875 115.193 240.975 123.493 240.375 123.893C239.875 124.293 236.475 124.893 232.775 125.193C212.975 127.293 192.575 134.093 174.475 144.893L170.775 147.093L148.475 134.793C113.075 115.193 110.175 113.293 108.275 109.393C106.075 104.693 106.275 99.6927 108.975 95.7927C114.275 87.8927 120.875 86.4928 130.675 91.1927C137.175 94.1927 142.575 94.4927 148.175 91.8927C155.775 88.4927 160.575 79.8927 159.075 72.1927C158.275 67.8927 160.675 61.0928 164.175 57.7927C167.175 54.9927 175.275 53.9927 179.675 55.7927C181.375 56.4927 184.175 58.7927 185.975 60.7927C190.275 65.7927 195.075 68.1927 201.175 68.1927C210.775 68.2927 218.475 61.5927 220.075 51.5927C221.875 40.1926 233.275 34.1927 242.475 39.7927ZM274.875 165.293C322.675 179.293 366.075 220.293 398.075 281.793C401.975 289.193 408.775 303.493 413.275 313.593C426.175 342.393 433.975 354.493 449.875 370.693C472.475 393.493 503.075 410.193 540.675 420.193C568.775 427.693 591.975 430.193 631.175 430.193C662.575 430.193 677.375 429.293 703.675 425.693C776.075 415.793 854.175 391.193 896.675 364.893C906.675 358.693 924.375 344.993 949.175 324.293C1004.38 278.393 1023.77 264.893 1046.67 256.693C1055.17 253.593 1072.38 253.293 1080.28 256.093C1091.78 260.093 1100.28 268.393 1103.38 278.693C1105.47 285.393 1105.58 299.493 1103.78 308.293C1100.97 321.793 1094.78 338.693 1086.88 354.393C1082.07 363.993 1080.18 367.293 1072.28 380.193C1069.28 385.193 1068.68 387.093 1068.68 391.893C1068.68 397.093 1069.17 398.193 1073.97 405.593C1080.47 415.293 1082.18 420.593 1081.38 429.393C1080.18 445.093 1067.58 461.793 1042.28 481.293C1028.28 492.093 1025.77 499.193 1031.67 511.593C1036.27 521.293 1037.98 528.193 1037.48 535.393C1037.18 540.393 1036.58 542.293 1034.67 544.393C1030.38 548.893 1024.17 551.393 1011.38 553.893C1004.58 555.193 999.275 559.193 996.575 565.293C993.975 570.893 994.175 573.893 998.075 585.293C1002.67 598.793 1004.08 608.293 1003.48 621.993C1002.48 643.793 994.175 657.693 974.575 670.093C963.575 677.093 960.575 683.393 962.875 694.693C964.575 703.293 964.575 731.993 962.775 741.793C959.175 762.493 954.375 776.893 945.575 793.693C926.775 829.593 890.475 859.693 841.475 879.793C827.875 885.393 825.775 888.293 824.575 902.893C823.675 913.993 821.175 920.393 816.375 924.093C806.875 931.193 789.475 932.093 767.675 926.493C738.775 918.993 711.975 908.393 630.675 872.593C546.975 835.693 530.675 829.193 513.075 826.193C502.675 824.493 495.275 822.193 480.475 816.193C412.975 788.893 344.575 736.693 301.775 679.893C273.575 642.293 256.375 607.293 239.875 553.793C232.575 530.093 222.675 490.193 222.675 484.393C222.675 483.193 224.575 482.893 231.475 482.893C247.875 482.793 260.175 477.593 271.675 465.893C284.875 452.493 289.475 440.193 290.375 416.293C291.175 393.593 288.275 375.793 278.575 345.293C268.775 314.293 244.275 260.093 235.875 250.693C231.675 245.993 208.775 230.193 183.675 214.793C176.275 210.193 169.775 206.093 169.375 205.693C166.975 203.693 178.475 189.293 188.475 181.993C211.575 164.793 248.775 157.593 274.875 165.293ZM162.175 246.493C170.675 251.793 177.575 256.193 177.475 256.393C176.975 256.793 118.675 261.993 117.575 261.593C116.775 261.293 145.275 236.793 146.375 236.793C146.575 236.793 153.675 241.093 162.175 246.493ZM193.875 300.393C192.275 304.493 190.675 307.993 190.275 307.993C188.675 308.193 154.675 297.393 155.275 296.893C155.775 296.393 185.975 293.193 193.375 292.893L196.575 292.793L193.875 300.393ZM233.475 332.793C246.175 364.693 252.675 391.293 252.675 410.693C252.675 421.193 251.475 427.493 248.275 433.793C241.775 446.693 225.175 448.393 208.975 437.793C202.175 433.293 198.775 428.693 197.575 422.493C196.675 417.293 200.075 400.593 206.175 380.293C212.275 359.793 226.975 318.693 227.875 319.593C228.175 319.993 230.775 325.893 233.475 332.793ZM516.675 865.793C522.075 867.293 539.775 874.293 560.675 883.293C578.375 890.893 632.975 914.993 633.575 915.493C634.975 916.593 625.875 923.593 618.175 927.293C601.275 935.393 573.875 939.293 559.175 935.693C542.475 931.693 527.175 917.093 515.275 893.793C510.275 884.093 503.675 867.293 503.675 864.393C503.675 862.993 508.675 863.493 516.675 865.793Z" fill="black"/>
<path d="M226.275 178.793C217.875 183.093 213.675 189.893 213.675 198.893C213.775 211.293 223.175 220.793 235.375 220.793C251.875 220.793 262.675 201.993 254.075 188.093C249.675 180.993 244.075 177.493 236.375 177.093C231.675 176.793 229.275 177.293 226.275 178.793ZM240.975 184.193C242.775 184.893 245.675 187.193 247.475 189.193C250.275 192.393 250.675 193.593 250.675 198.493C250.675 205.193 248.175 209.593 242.575 212.693C235.875 216.493 229.175 215.093 223.175 208.793C220.475 205.893 220.175 205.093 220.175 198.793C220.175 192.493 220.475 191.593 223.175 188.693C228.475 183.093 234.675 181.493 240.975 184.193Z" fill="black"/>
<path d="M746.675 465.993C734.175 472.393 731.875 487.093 741.975 496.493C744.075 498.393 751.475 502.093 763.175 506.793C816.875 528.593 855.375 550.693 882.175 575.193C901.975 593.293 912.775 611.693 913.075 627.993C913.075 632.193 912.875 635.893 912.475 636.293C910.875 637.893 869.575 646.693 837.675 652.193C748.475 667.493 666.375 670.193 604.675 659.793C582.275 655.993 560.675 650.393 544.675 644.093C535.775 640.593 518.575 632.093 516.175 629.793C509.075 623.293 499.075 621.793 491.475 625.993C480.675 632.093 479.175 647.593 488.575 656.093C504.275 670.293 541.875 685.693 580.175 693.693C614.675 700.893 635.075 702.893 680.475 703.493C737.975 704.293 775.775 701.093 842.175 689.793C881.975 682.993 930.575 672.493 936.575 669.293C943.375 665.793 948.975 653.593 950.775 638.193C953.775 612.793 943.675 586.393 920.775 560.193C911.975 550.093 902.675 541.893 885.475 528.993C868.775 516.593 853.775 507.593 828.775 494.893C800.275 480.493 760.275 463.793 754.375 463.793C752.575 463.793 749.075 464.793 746.675 465.993Z" fill="black"/>
</g>
<defs>
<clipPath id="clip0_5_2">
<rect width="1181" height="1166" fill="white"/>
</clipPath>
</defs>
</svg>
