<svg width="1148" height="1148" viewBox="0 0 1148 1148" fill="none" xmlns="http://www.w3.org/2000/svg">
<g clip-path="url(#clip0_9_20)">
<path d="M457.561 346.228L479.617 163.983L519.981 151.051L543.966 196.298L578.729 173.925L604.962 195.646L605.357 232.644L569.555 345.033L547.088 488.781L510.468 665.182L540.794 742.362L575.163 870.503L647.54 952.235L688.902 1032.8L676.969 1085.93L577.143 1055.99L513.548 953.665L463.01 856.699L410.301 743.755L408.967 618.762L444.572 487.875L457.561 346.228Z" fill="#EE1111" stroke="#37DF1C"/>
<path d="M555.871 93.6646L510.3 134.153L556.81 181.66L589.669 168.308L616.063 205.029L641.167 167.758L597.643 25.2149L571.777 37.9917L555.871 93.6646Z" fill="#37DF1C" stroke="#37DF1C"/>
<path d="M613.049 0.00671805C599.073 2.35602 589.703 5.25624 579.46 10.6659C567.229 17.1968 557.041 27.7061 551.567 39.5652C550.003 42.8821 547.191 51.2126 545.165 58.1346C543.239 65.0556 540.328 73.3871 538.763 76.704C535.535 83.4388 528.42 91.5153 524.238 93.16C522.744 93.776 514.362 95.4655 505.678 97.0583C496.894 98.5521 488.115 100.546 486.224 101.466C482.345 103.408 456.96 133.08 454.322 138.909C450.512 147.35 454.026 158.013 462.276 162.625C464.086 163.606 463.992 164.107 461.109 175.138C455.536 196.399 452.459 217.333 446.03 280.205C441.418 325.957 440.113 334.872 436.518 344.711C431.663 358.363 429.319 372.989 425.913 409.927C421.349 460.179 417.878 481.617 410.997 502.192C394.134 552.575 380.488 670.127 386.73 711.563C388.453 723.045 403.042 768.792 419.736 815.016C443.644 881.165 460.22 916.29 476.524 935.317C485.737 945.919 495.798 960.913 517.168 995.487C550.445 1049.33 558.763 1060.35 573.465 1069.79C591.387 1081.2 628.742 1095.5 669.26 1106.37C677.987 1108.78 685.209 1110.8 685.31 1110.9C686.543 1113.99 694.284 1127.2 697.024 1130.87C701.588 1136.93 711.065 1144.03 716.581 1145.57C718.888 1146.14 723.794 1146.69 727.394 1146.65C732.893 1146.59 735.187 1145.97 741.554 1142.9C757.272 1135.13 766.524 1121.13 768.814 1101.51C769.539 1094.5 769.517 1092.4 768.178 1088.71C766.22 1083.33 763.286 1080.16 758.061 1077.82C753.136 1075.57 748.636 1075.52 743.857 1077.57C736.491 1080.75 733.836 1084.98 732.648 1095.49C731.916 1101.9 728.894 1109.23 726.894 1109.25C726.495 1109.26 724.359 1105.98 722.217 1102L718.24 1094.85L717.441 1066.85L716.543 1038.86L713.345 1029.69C706.854 1011.86 694.931 991.089 666.369 947.892C656.002 932.301 646.238 917.005 644.605 913.922C640.927 906.661 635.351 899.52 618.547 880.498C595.464 854.143 584.801 838.956 581.377 827.292C577.746 815.03 563.863 769.876 558.583 753.031C551.031 729.51 540.969 695.616 538.252 684.644C535.532 673.472 535.803 661.369 539.796 632.525C542.578 612.094 543.517 606.383 555.341 543.054C559.221 522.411 563.656 497.562 565.254 487.945C570.609 455.586 580.136 411.281 604.214 306.018C623.137 223.712 621.697 229.328 624.09 228.702C625.287 228.389 627.569 226.665 629.25 224.947C631.622 222.321 650.054 197.023 658.916 184.128C663.545 177.378 663.01 174.183 650.565 132.514C644.342 111.679 637.614 90.3497 635.658 85.0703C630.924 72.5201 627.667 57.854 627.365 48.3567C627.152 37.7583 627.941 36.6498 635.433 35.8698C643.325 35.0855 648.29 31.8324 651.124 25.6018C652.297 23.0891 653.262 19.7787 653.247 18.3788C653.161 10.2792 647.074 2.24368 639.352 0.22598C635.842 -0.736606 618.64 -0.853007 613.049 0.00671805ZM590.611 52.8492C590.728 63.7486 596.584 87.6875 603.058 104.019C606.14 111.687 622.84 167.812 622.869 170.512C622.876 171.212 621.797 173.123 620.415 174.838C618.342 177.36 617.744 177.567 617.031 176.374C616.523 175.58 612.96 169.717 608.993 163.459C603.091 153.922 601.267 151.741 597.647 149.88C592.72 147.332 587.117 147.092 582.239 149.144C580.347 149.964 574.188 153.83 568.43 157.792L557.907 165.005L556.866 161.216C556.245 159.222 555.302 155.232 554.573 152.54C552.488 144.561 550.855 141.479 546.921 138.32C542.785 134.964 538.371 133.711 526.96 132.733C522.555 132.28 520.05 131.807 521.449 131.692C528.638 130.615 538.506 127.61 543.377 124.857C550.235 120.884 564.58 106.23 568.899 98.6836C573.318 91.036 577.211 80.9938 580.772 67.9551C583.76 57.4226 587.667 48.6804 589.567 48.6601C590.167 48.6537 590.587 50.5493 590.611 52.8492ZM517.047 169.041C519.351 169.416 520.96 170.199 521.271 171.196C521.58 172.093 523.043 177.978 524.61 184.261L527.433 195.732L525.245 206.256C506.077 303.066 486.454 394.68 476.566 433.388C468.985 463.271 461.312 512.655 452.801 586.651C447.035 636.715 444.204 690.048 446.392 707.626C450.994 745.279 476.48 809.411 522.237 898.827C541.335 936.025 542.964 938.708 552.597 951.106C566.083 968.463 596.657 1003.34 631.969 1041.76C641.986 1052.66 649.982 1061.67 649.884 1061.87C648.896 1062.98 612.648 1049.27 600.683 1043.3C585.802 1035.76 581.642 1030.2 540.22 962.739C524.442 936.806 515.405 924.002 504.367 911.119C492.015 896.95 480.453 872.472 460.381 818.983C446.381 781.53 427.684 725.727 423.921 710.466C421.828 701.788 421.616 672.588 423.464 648.967C427.246 600.424 436.164 545.826 445.06 517.229C454.826 485.923 457.365 470.795 462.475 415.538C465.613 381.602 467.764 367.578 471.829 354.934C476.573 340.283 478.533 327.161 483.044 281.31C489.271 218.24 494.427 185.983 500.566 170.917L501.93 167.502L507.636 168.041C510.739 168.308 515.044 168.762 517.047 169.041ZM586.553 197.301C587.981 199.886 589.214 202.973 589.227 204.273C589.241 205.573 586.291 219.605 582.66 235.445C547.872 386.724 539.284 425.318 533.33 457.784C531.065 470.409 525.299 501.772 520.573 527.424C507.626 598.066 505.744 609.187 503.241 627.614C499.996 651.55 498.992 669.862 500.198 679.85C501.834 692.533 514.829 738.897 527.851 778.36C531.261 788.625 540.071 817.632 545.367 835.977C550.87 854.919 562.661 872.794 590.702 904.597C607.913 924.214 609.837 926.494 612.695 931.864C615.654 937.432 625.928 953.624 638.633 972.789C655.402 997.912 675.969 1032.19 674.981 1033.3C674.585 1033.71 639.882 996.077 618.523 972.004C602.835 954.47 584.301 932.567 578.823 925.325C576.388 922.051 566.291 903.657 556.487 884.561C515.842 805.69 490.287 744.459 484.13 711.023C480.313 690.663 483.542 637.225 493.126 560.719C501.045 496.83 505.658 469.88 514.664 432.981C520.029 410.923 532.052 356.792 540.33 317.201C546.231 289.136 561.052 216.074 561.997 210.964C562.751 206.655 563.246 206.15 572.676 199.549C578.036 195.792 582.804 192.741 583.204 192.736C583.604 192.732 585.126 194.816 586.553 197.301Z" fill="black"/>
</g>
<defs>
<clipPath id="clip0_9_20">
<rect width="1148" height="1148" fill="white"/>
</clipPath>
</defs>
</svg>
