<svg width="1538" height="1538" viewBox="0 0 1538 1538" fill="none" xmlns="http://www.w3.org/2000/svg">
<path d="M343 1102.5L367.5 981L416 940.5L478 981L534.5 962L569.5 981L534.5 1183L478 1269.5H610V1142.5L669 1029.5L696 1183L669 1269.5H769L720.5 919L847 803L979 738.5H1095L1143.5 803L1184 981L1116.5 1213L1095 1269.5H1213.5L1200 1213L1289 940.5V857L1310.5 832.5L1413 1059V1196.5L1372.5 1269.5H1510L1488.5 1196.5L1461.5 962L1510 919L1488.5 876L1461.5 803V682L1488.5 533.5L1461.5 380L1372.5 307L1289 261.5L1073.5 291L847 307L669 291L569.5 323.5L416 439L313.5 582L203 803L151.5 832.5L103 803L33 832.5L65.5 876L89.5 940.5L103 997L89.5 1029.5L103 1080.5L89.5 1183L122 1245L187 1229L227 1183L273 1161.5L343 1102.5Z" fill="#FFFEFE" stroke="black" stroke-width="4"/>
<path d="M408 439L273 663L348.5 727.5L456.5 698L505 633.5L599 487.5L691 458L804 396L844.5 310H629L529 355.5L408 439Z" fill="black" stroke="black" stroke-width="4"/>
<path d="M1300 280L995.5 304.5V439L1017 490.5L1089.5 539L1160 523L1321.5 539L1359.5 585L1416 714L1464.5 741L1494 523L1464.5 401.5L1394.5 304.5L1300 280Z" fill="black" stroke="black" stroke-width="4"/>
<path d="M820 913.5L766.5 932.5L739.5 913.5L766.5 857L844.5 876L820 913.5Z" fill="#F9A9E7" stroke="black" stroke-width="4"/>
<path d="M949.5 876L874 851.5V795L998 746.5H1100.5L1135.5 808.5L1122 851.5L1027.5 876H949.5Z" fill="#F9A9E7" stroke="black" stroke-width="4"/>
<path d="M1219.22 245.809C1212.68 246.304 1195.96 247.986 1182.1 249.669C1091.74 260.258 935.369 273.718 849.562 278.37C800.571 281.042 742.278 282.032 725.849 280.349C707.044 278.469 677.65 277.974 663.695 279.261C601.443 285.199 540.378 307.665 483.371 345.967C440.517 374.668 395.387 417.522 358.669 464.434C317.101 517.482 242.477 641.888 206.749 717.798C188.835 755.605 180.918 771.737 177.157 777.577C173 784.109 165.181 792.62 156.67 800.043L151.128 804.892L143.21 799.548C130.245 790.938 118.863 787.276 102.335 786.385C84.4216 785.494 67.8936 789.354 48.5943 798.954C36.5199 804.991 19.9919 815.878 14.6475 821.42C5.14632 831.219 5.93808 847.846 16.33 856.753C19.2001 859.227 22.763 860.811 29.7899 862.691C41.0726 865.858 48.9902 869.52 53.5428 873.776C57.6996 877.735 57.7986 880.605 53.9387 903.863C49.8809 928.111 49.2871 937.909 51.2665 949.092C54.0377 965.224 59.877 977.2 71.4565 990.363C74.5246 993.827 76.603 997.192 76.603 998.578C76.603 999.864 75.0194 1006.99 73.04 1014.51C66.9039 1037.97 68.2894 1053.11 78.2854 1071.12C83.5309 1080.33 83.4319 1080.72 75.1184 1123.58C68.4874 1157.23 67.2997 1167.62 67.9925 1184.84C68.8833 1207.9 74.8215 1224.13 87.6876 1237.89C99.861 1250.85 114.014 1258.57 135.589 1263.72C154.493 1268.17 168.151 1266.39 187.45 1256.69C204.374 1248.28 218.922 1236.8 240.894 1214.63L257.224 1198.2L267.616 1194.84C273.257 1193.05 283.55 1188.7 290.379 1185.24C336.796 1161.78 368.764 1118.63 381.828 1061.62C386.281 1042.32 389.349 1014.81 389.349 994.52C389.349 987.592 389.646 986.305 392.022 983.138C396.673 976.705 401.622 972.152 403.7 972.152C404.987 972.152 409.045 975.122 413.696 979.377C430.521 994.916 443.684 1000.85 465.062 1002.34C479.907 1003.43 500.592 998.775 516.724 990.561L523.454 987.196L529.195 990.066C534.836 992.936 534.836 993.035 534.341 996.697C534.044 998.676 531.075 1025.7 527.908 1056.77L522.069 1113.19L511.479 1151.29L500.889 1189.39L468.427 1222.05C438.538 1252.24 435.965 1255.11 434.381 1260.06C430.422 1272.13 436.657 1285.59 448.336 1290.44C453.383 1292.52 607.579 1292.52 612.528 1290.44C618.367 1287.97 622.722 1284.01 625.394 1278.66L627.868 1273.62V1230.56L627.769 1187.41L639.448 1150.6C645.782 1130.31 651.126 1113.88 651.324 1113.98C651.423 1114.17 655.58 1129.71 660.429 1148.62L669.238 1182.96L653.007 1220.96C644.099 1241.85 636.38 1260.85 635.885 1263.22C634.697 1268.37 635.984 1275.89 638.656 1280.35C641.427 1284.8 644.495 1287.47 649.642 1289.75C653.996 1291.73 655.877 1291.83 712.29 1291.83C775.928 1291.83 773.652 1292.02 780.678 1285.89C784.934 1282.13 787.705 1277.18 788.596 1271.54C789.091 1268.87 787.013 1252.14 782.361 1219.08C775.631 1172.27 775.037 1166.53 765.338 1053.31C754.055 921.48 754.253 931.772 761.874 916.333C769.396 900.894 779.392 892.184 793.05 889.017C800.769 887.236 818.584 888.324 847.582 892.382C860.943 894.263 880.935 896.737 892.119 897.925C903.303 899.112 913.398 900.201 914.684 900.498L916.862 900.894V934.544C916.862 966.709 916.961 968.392 918.94 972.647C921.711 978.585 927.55 983.633 933.786 985.414C940.219 987.394 942 987.394 948.136 985.513C954.668 983.633 960.112 978.882 962.982 972.746C965.258 967.798 965.357 967.303 965.357 935.236C965.357 910.197 965.654 902.675 966.644 902.378C967.238 902.18 973.869 901.883 981.39 901.587L994.85 901.191L995.246 918.609C995.642 938.008 996.434 940.68 1003.16 947.014C1008.41 951.962 1012.67 953.645 1019.79 953.744C1025.14 953.843 1027.11 953.348 1031.47 950.874C1037.31 947.707 1041.66 942.263 1043.44 936.028C1044.04 933.752 1044.53 923.756 1044.53 912.77V893.471L1055.72 890.601C1061.75 889.116 1067.79 887.632 1068.98 887.335L1071.16 886.84L1071.45 927.715C1071.75 965.422 1071.85 968.985 1073.63 972.152C1080.66 985.513 1095.31 990.363 1107.68 983.534C1113.52 980.367 1117.87 974.924 1119.65 968.688C1120.34 966.016 1120.74 948.4 1120.74 915.541V866.452L1124.3 864.374C1126.18 863.186 1128.06 862.295 1128.56 862.295C1128.96 862.295 1129.85 868.431 1130.44 875.854C1134.5 921.183 1145.29 959.682 1159.74 980.169C1160.92 981.95 1160.92 982.94 1159.34 988.285C1130.44 1086.56 1113.32 1150.4 1105.99 1186.62L1102.33 1204.73L1088.97 1219.68C1058.09 1254.51 1057.4 1255.41 1055.82 1260.95C1052.35 1272.82 1058.49 1285.69 1069.87 1290.44C1074.72 1292.52 1222.19 1292.52 1227.03 1290.44C1235.25 1287.08 1242.47 1276.78 1242.47 1268.57C1242.47 1266.39 1239.41 1253.13 1235.65 1239.17L1228.82 1213.74L1265.34 1102.1C1285.43 1040.74 1302.55 987.097 1303.44 983.039C1307.3 963.74 1310.47 931.97 1311.06 907.228L1311.26 897.133L1346.99 975.023L1382.81 1052.81L1386.08 1122.69L1389.35 1192.56L1367.28 1224.43C1344.02 1257.98 1341.94 1261.94 1342.83 1270.25C1343.82 1279.36 1350.85 1288.16 1359.16 1290.64C1365.2 1292.52 1510.59 1292.32 1515.04 1290.44C1524.14 1286.68 1529.88 1277.97 1529.98 1268.07C1529.98 1262.04 1529.19 1259.76 1516.23 1228.49L1502.37 1195.33L1500.99 1076.27L1499.6 957.307L1504.25 951.567C1509.89 944.738 1513.75 937.414 1516.62 927.715C1518.6 921.381 1518.8 919.005 1518.3 908.415C1517.71 894.758 1515.93 888.028 1509.1 873.281C1504.35 863.087 1501.78 852.002 1497.42 821.717C1491.98 784.208 1489.9 755.704 1489.9 716.809C1489.9 666.235 1493.76 631.1 1504.25 587.257C1509.89 563.702 1511.18 548.064 1510.39 515.899C1509.69 489.672 1508.8 479.478 1505.14 457.605C1495.34 398.124 1471.69 348.54 1436.06 312.812C1385.88 262.337 1311.56 239.376 1219.22 245.809ZM1295.42 297.075C1334.91 303.805 1364.5 316.078 1388.46 335.773C1424.28 365.266 1447.15 408.714 1456.75 465.82C1460.41 487.89 1461.5 504.814 1460.9 534.307C1460.51 558.951 1460.31 561.623 1457.93 570.333C1449.42 601.805 1441.8 652.973 1441.31 682.169C1441.21 686.227 1440.81 690.879 1440.51 692.561C1439.82 695.53 1439.72 695.431 1437.05 689.592C1432.6 679.992 1429.73 672.173 1421.12 646.045C1412.31 619.026 1407.16 606.358 1399.74 592.502C1378.66 552.914 1345.5 527.28 1299.88 515.107C1268.31 506.695 1236.14 504.517 1184.58 507.486C1132.62 510.456 1109.26 508.674 1080.06 499.569C1053.44 491.255 1031.57 473.144 1019.79 449.589C1004.55 418.908 1001.88 370.907 1012.96 323.797L1014.94 315.385L1045.33 312.614C1082.14 309.348 1144.3 303.113 1180.62 299.154C1221.99 294.601 1226.24 294.304 1255.84 294.7C1277.91 294.997 1285.92 295.492 1295.42 297.075ZM962.982 322.313C961.497 328.35 958.429 352.598 957.44 366.948C953.283 425.044 970.504 478.389 1003.56 510.06C1042.95 547.569 1098.37 562.316 1180.62 557.071C1236.04 553.508 1267.22 555.784 1296.41 565.582C1315.02 571.817 1328.28 579.933 1339.96 592.205C1354.11 607.348 1360.84 621.005 1375.99 665.74C1388.85 703.547 1392.51 712.256 1402.41 727.3C1410.92 740.265 1421.21 750.36 1432.5 756.892C1442.39 762.731 1442.39 762.632 1442.39 768.372C1442.39 783.218 1449.22 835.969 1454.86 864.275C1457.83 879.417 1458.92 882.881 1463.18 891.492C1471.79 908.91 1471.99 915.541 1463.97 921.875C1456.55 927.715 1453.48 931.476 1451.8 936.424C1450.31 940.977 1450.31 950.775 1451.8 1072.81L1453.38 1204.24L1461.1 1223.54L1468.92 1242.84L1442.1 1243.13C1427.45 1243.23 1415.18 1243.13 1414.98 1242.94C1414.68 1242.74 1419.04 1236.01 1424.68 1227.99C1437.84 1208.99 1438.44 1207.7 1438.44 1197.71C1438.44 1182.56 1431.51 1044.9 1430.52 1040.84C1428.93 1034.11 1325.21 809.841 1321.85 805.783C1316.41 799.251 1306.71 796.183 1297.9 798.063C1293.64 798.954 1290.77 800.736 1281.67 808.059C1263.55 822.608 1258.71 827.26 1256.43 832.01C1253.76 837.751 1253.76 845.47 1256.33 855.367C1259.7 868.233 1261.38 884.267 1261.38 905.347C1261.38 941.67 1258.11 965.62 1249.4 992.639C1246.04 1002.83 1229.11 1054.69 1211.79 1107.74C1194.37 1160.79 1179.83 1206.12 1179.33 1208.3C1178.24 1213.15 1179.03 1218.49 1182.5 1230.96C1186.46 1244.72 1189.03 1243.33 1159.83 1243.33C1145.98 1243.33 1134.6 1243.03 1134.6 1242.74C1134.6 1242.44 1136.87 1239.57 1139.64 1236.6C1148.55 1226.8 1149.44 1224.92 1150.93 1212.45C1152.91 1195.73 1157.26 1177.42 1172.3 1122.09C1182.1 1086.17 1192.59 1049.45 1204.77 1007.98C1209.91 990.759 1212.78 979.179 1212.78 976.309C1212.78 970.47 1210.11 964.532 1204.57 958C1199.32 951.666 1196.95 947.806 1193.58 939.789C1184.08 917.125 1178.64 881.496 1177.25 833.099C1176.46 809.247 1176.26 806.773 1173.79 798.459C1164.29 767.185 1143.5 741.65 1116.29 727.992C1085.71 712.553 1045.82 710.772 999.205 722.747C950.809 735.019 896.474 761.049 829.273 803.903C816.407 812.117 805.223 819.639 782.262 835.672C775.433 840.423 766.13 846.163 761.478 848.439C741.585 858.336 726.047 875.458 716.051 898.419C711.498 908.712 707.242 922.667 706.451 929.991C706.154 932.96 710.212 985.513 716.447 1057.27C725.156 1159.5 727.63 1184.44 731.292 1209.68C733.766 1226.31 735.746 1240.66 735.746 1241.55C735.746 1243.23 734.162 1243.33 716.348 1243.33C701.205 1243.33 697.048 1243.03 697.444 1242.04C697.741 1241.45 702.69 1229.67 708.628 1216.11C718.228 1193.75 719.218 1190.78 719.218 1185.43C719.218 1180.98 714.17 1159.8 698.137 1097.84C686.558 1052.91 676.265 1014.61 675.275 1012.63C672.801 1007.68 666.269 1002.34 660.924 1000.85C651.522 998.182 640.041 1001.74 634.598 1008.97C631.332 1013.32 632.223 1010.55 604.412 1097.84L579.867 1174.55L579.373 1208.69L578.878 1242.84L547.702 1243.13L516.526 1243.33L529.591 1230.27C536.716 1223.04 543.248 1215.72 544.139 1214.04C544.931 1212.25 551.166 1191.17 557.995 1167.03L570.366 1123.08L577.888 1051.33C582.243 1009.86 585.212 977.596 584.915 974.924C583.727 963.74 579.769 960.375 551.958 946.618C521.376 931.476 521.277 931.476 501.681 942.956C489.903 949.785 474.959 954.041 465.656 953.15C459.025 952.457 453.482 949.389 445.367 941.769C437.449 934.247 429.037 928.605 421.119 925.438C416.566 923.657 413.696 923.261 404.195 923.261C394.1 923.261 392.022 923.558 385.984 925.933C369.852 932.267 354.314 947.806 343.724 968.194L340.359 974.627L339.765 998.38C338.875 1029.16 336.499 1045.69 329.868 1066.17C320.169 1095.96 303.146 1119.12 279.096 1135.16C269.991 1141.29 255.047 1147.82 245.941 1149.9C231.69 1152.97 230.898 1153.47 219.912 1165.44C196.159 1191.57 180.126 1205.33 164.984 1212.85C155.383 1217.6 151.82 1217.8 140.241 1214.14C127.771 1210.18 120.645 1203.84 118.368 1194.34C115.102 1181.18 115.993 1170.29 123.614 1131.49C130.344 1097.05 131.433 1088.74 130.641 1077.46C129.849 1066.27 128.068 1060.04 122.525 1049.55C120.15 1044.99 118.171 1039.95 118.171 1038.36C118.171 1036.78 119.655 1029.56 121.536 1022.43C123.416 1015.2 125.296 1006.4 125.593 1002.83C126.979 989.274 121.14 973.241 110.352 960.276C106.888 956.218 103.226 951.072 102.038 948.894C99.0692 943.055 98.7723 931.772 101.346 917.719C106.492 889.512 107.086 878.724 104.117 866.254C102.335 858.732 96.6939 847.846 91.4485 842.204C86.8959 837.157 86.599 836.662 88.4794 836.068C91.8444 834.979 102.533 835.276 107.284 836.563C114.113 838.443 121.634 843.986 126.286 850.617C131.729 858.336 136.975 861.405 145.783 862.097C151.623 862.493 153.206 862.196 157.561 860.019C167.755 854.872 189.528 837.355 202.79 823.598C217.438 808.356 221.595 801.231 251.286 738.681C257.521 725.32 262.865 714.335 263.063 714.137C263.261 713.939 269.793 716.809 277.612 720.57C301.266 732.05 319.278 738.186 340.854 742.442C357.976 745.708 370.05 746.797 383.411 746.104C427.255 743.828 462.489 727.102 493.565 693.947C511.182 675.142 526.028 651.488 539.883 619.818C557.302 580.23 566.704 561.722 578.185 544.105C593.525 520.55 610.152 504.616 626.483 497.787C639.844 492.146 646.376 490.958 676.364 488.187C720.208 484.228 740.2 479.082 763.557 465.82C790.477 450.578 823.731 420.392 848.275 389.217C860.053 374.074 872.82 350.915 878.362 334.288C879.55 330.428 880.935 326.964 881.232 326.569C881.628 326.173 894.593 324.886 910.033 323.797C925.472 322.709 942.396 321.422 947.542 321.026C963.972 319.641 963.675 319.641 962.982 322.313ZM710.212 328.548C720.603 329.835 731.688 330.23 762.468 330.23C783.944 330.23 807.499 329.934 814.724 329.439L827.887 328.746L825.017 334.486C816.308 351.509 799.087 373.579 782.064 389.415C759.697 410.297 747.622 419.403 733.272 426.43C717.535 434.05 709.222 435.634 662.409 440.187C633.213 442.958 617.575 447.015 599.167 456.616C585.905 463.544 577.789 469.779 564.032 483.635C541.863 506.002 520.683 540.543 501.681 585.178C488.617 615.859 479.511 632.783 467.635 648.519C459.816 658.911 455.264 663.761 445.763 671.678C423.89 689.988 400.434 697.905 372.03 696.718C346.99 695.53 322.94 688.602 294.041 674.153L286.321 670.194L288.202 667.027C289.29 665.245 294.635 655.942 300.177 646.342C312.153 625.36 332.244 592.007 346.792 568.848C384.599 508.674 408.55 477.597 444.674 441.671C485.252 401.39 526.621 372.59 571.95 353.291C620.841 332.309 670.326 323.5 710.212 328.548ZM1075.51 765.898C1085.61 767.779 1092.44 770.451 1099.56 775.102C1108.96 781.14 1116.29 789.255 1120.94 798.558C1123.21 803.111 1124.8 807.07 1124.6 807.268C1122.92 808.653 1111.64 815.383 1103.92 819.54C1042.65 852.398 975.254 860.316 874.601 846.46C866.783 845.371 859.954 844.481 859.261 844.481C856.985 844.481 860.646 841.808 875.294 832.901C960.903 780.348 1030.08 757.288 1075.51 765.898Z" fill="black"/>
<path d="M780.464 783.149C754.633 787.108 728.307 816.7 713.956 857.872C702.574 890.631 710.096 920.817 734.938 941.502C740.876 946.45 753.445 952.686 761.759 954.764C796.497 963.671 863.797 935.267 882.7 903.794C890.717 890.433 891.212 874.598 883.987 858.169C878.445 845.303 862.313 825.113 847.764 812.741C821.834 790.572 798.675 780.378 780.464 783.149ZM795.804 835.307C809.462 843.026 826.683 858.961 835.393 871.926L840.44 879.447L837.174 882.417C825.99 892.611 798.971 904.982 782.641 907.258C767.499 909.534 755.325 896.866 758.097 881.724C760.769 867.076 774.922 841.443 784.324 834.119C787.788 831.348 789.074 831.546 795.804 835.307Z" fill="black"/>
</svg>
