<svg width="870" height="870" viewBox="0 0 870 870" fill="none" xmlns="http://www.w3.org/2000/svg">
<path d="M78.5 469L36.5 551L95.5 619.5L36.5 642.5L78.5 693.5L183.5 762L293.5 804L421 813.5L514.5 804L623 741.5L725.5 665L840 741.5V433L725.5 518.5L687.5 469L623 419.5L514.5 364.5V258L356.5 347.5L229 379.5L139.5 419.5L78.5 469Z" fill="#5FD4EE" stroke="black"/>
<path d="M42.5 343.5H76.5L99.5 322.5L90 298L76.5 280.5H42.5L27 315L42.5 343.5Z" fill="#D6F8FF" fill-opacity="0.43" stroke="black"/>
<path d="M239 220.5L212.5 272.5V322L240 360.5L260 356L353.5 332.5L367.5 296.5L353.5 242.5L307 208.5L239 220.5Z" fill="#D6F8FF" fill-opacity="0.43" stroke="black"/>
<path d="M67.5 76.5L55.5 108L61 138L89.5 158H131L161.5 138L167 102L153 71L122.5 57H89.5L67.5 76.5Z" fill="#D6F8FF" fill-opacity="0.43" stroke="black"/>
<path d="M143.5 502.5L146.5 523L163.5 535L178 521L179.5 502.5L160 493.5L143.5 502.5Z" fill="#FFFAFA" stroke="black"/>
<path d="M94.4376 39.9546C79.7376 43.7546 68.7376 50.6546 58.5376 62.6546C47.4376 75.6546 41.9376 90.4546 41.9376 107.455C42.0376 128.155 50.4376 146.855 65.7376 159.755C75.3376 167.955 82.9376 171.955 94.9376 175.155C101.838 177.055 121.238 176.755 128.838 174.755C154.938 167.755 174.938 146.055 179.538 119.955C184.438 91.7546 173.038 65.4546 149.038 49.1546C134.138 39.0546 112.538 35.3546 94.4376 39.9546ZM125.538 67.8546C134.238 70.5546 144.238 79.8546 149.138 89.8546C152.238 96.1546 152.438 97.0546 152.438 107.555C152.438 117.455 152.138 119.155 149.738 124.355C145.838 132.555 136.438 142.155 128.638 145.555C116.938 150.855 104.238 150.555 92.4376 144.655C67.2376 132.155 61.5376 99.9546 80.8376 78.8546C91.6376 67.0546 109.138 62.7546 125.538 67.8546Z" fill="black"/>
<path d="M278.438 191.655C262.438 193.055 245.438 198.655 233.938 206.355C211.538 221.355 196.838 242.555 191.338 267.555C189.238 277.155 189.238 298.355 191.438 307.555C195.438 324.755 203.538 340.455 214.238 351.755L218.138 355.855L198.838 365.355C157.138 385.855 127.538 406.555 94.2376 438.455C64.1376 467.455 35.6376 503.955 17.0376 537.555C10.2376 549.855 9.13756 553.455 10.8376 559.155C11.9376 562.755 15.1376 565.655 42.2376 587.155C58.8376 600.355 72.3376 611.555 72.2376 611.855C72.1376 612.255 66.9376 614.855 60.7376 617.755C29.9376 631.955 30.1376 631.855 27.8376 636.255C23.9376 643.955 25.6376 648.155 41.4376 669.555C63.7376 699.755 99.7376 732.555 136.438 756.255C186.638 788.655 247.738 811.955 310.638 822.455C370.938 832.555 429.638 833.855 475.438 825.955C557.838 811.755 649.138 763.355 713.038 699.955C720.638 692.355 726.738 687.155 727.438 687.455C728.238 687.655 754.138 702.655 785.138 720.755C839.038 752.155 841.638 753.555 846.438 753.455C852.438 753.455 856.138 751.255 858.338 746.555C859.738 743.555 859.938 727.155 859.938 582.555V421.755L857.738 418.355C854.438 412.955 845.938 410.355 840.838 413.155C839.238 413.955 739.438 487.155 734.338 491.155C733.638 491.755 730.638 488.555 725.638 482.055C716.538 470.355 695.838 448.655 683.938 438.555C648.638 408.655 594.938 377.455 540.938 355.555L530.438 351.255L529.938 299.855L529.438 248.555L527.138 245.355C524.538 241.755 519.138 239.555 514.538 240.355C512.838 240.655 481.138 258.455 444.238 279.955C407.238 301.455 376.838 319.055 376.638 319.055C376.438 319.055 377.138 315.755 378.238 311.755C379.838 305.955 380.238 301.255 380.338 287.555C380.438 272.555 380.138 269.555 378.138 262.555C367.738 226.655 338.438 199.655 302.938 193.155C296.238 191.955 283.938 191.255 278.438 191.655ZM299.638 220.555C319.838 224.355 339.538 240.455 348.338 260.355C352.838 270.555 354.638 284.755 352.938 296.955C351.538 306.955 349.238 313.455 344.038 322.155L340.138 328.555L333.338 329.355C301.538 332.855 277.338 337.155 258.738 342.655C253.738 344.055 249.038 344.955 247.938 344.555C244.238 343.355 232.738 331.755 227.738 324.155C225.138 320.155 221.738 313.155 220.238 308.655C217.738 301.355 217.538 299.155 217.538 287.055C217.538 274.955 217.838 272.655 220.338 265.555C227.938 243.255 247.738 225.555 270.438 220.555C278.638 218.755 290.238 218.755 299.638 220.555ZM505.238 368.355C507.338 371.555 509.138 372.555 523.938 378.355C560.738 392.655 599.538 412.755 630.938 433.555C668.338 458.455 694.938 483.855 713.438 512.555C716.338 516.955 719.538 521.355 720.638 522.355C723.738 525.055 728.738 526.155 732.838 525.055C734.938 524.455 756.438 509.255 784.438 488.555L832.438 452.955L832.738 472.655C832.838 484.855 832.638 492.755 831.938 493.455C831.438 493.955 816.238 502.555 798.238 512.555C762.538 532.355 760.938 533.655 760.938 541.455C760.938 546.755 762.638 549.955 766.838 552.755C773.538 557.255 775.738 556.555 804.738 540.555C819.138 532.555 831.338 526.055 831.938 526.055C832.638 526.055 832.938 534.355 832.938 550.555V575.055H783.438C742.738 575.055 733.338 575.355 731.138 576.455C721.038 581.655 720.238 594.655 729.638 600.755C732.138 602.455 736.138 602.555 782.638 602.855L832.938 603.155V627.555C832.938 641.055 832.538 652.055 832.038 652.055C831.638 652.055 819.738 645.655 805.838 637.955C791.838 630.155 778.738 623.355 776.638 622.855C768.838 621.155 761.838 626.755 761.238 635.255C760.538 644.255 760.638 644.355 798.738 665.455L832.938 684.255V700.155C832.938 708.855 832.738 716.055 832.538 716.055C832.238 716.055 808.738 702.455 780.238 685.755L728.438 655.555H722.538H716.638L710.138 663.055C663.938 715.855 586.038 766.055 516.938 787.355C478.438 799.255 450.338 803.555 410.938 803.355C356.738 803.155 310.338 796.855 263.238 783.455C256.138 781.455 250.038 779.555 249.538 779.355C249.138 779.055 252.038 775.355 256.138 771.155C289.938 736.455 316.538 689.855 328.438 644.655C335.538 617.155 338.138 597.555 338.138 569.555C338.138 526.655 330.638 492.255 313.438 455.355C301.638 430.255 276.938 396.655 258.038 380.255C254.738 377.355 251.938 374.555 251.938 374.155C251.938 373.155 273.738 366.755 286.238 364.055C307.438 359.655 337.938 356.055 355.438 356.055C360.438 356.055 366.038 355.555 367.938 355.055C369.838 354.555 400.938 336.955 436.938 316.055L502.438 278.055L502.938 321.855C503.438 361.455 503.638 365.855 505.238 368.355ZM232.138 394.255C272.638 429.755 297.738 473.455 306.838 524.055C316.638 578.955 308.638 634.655 283.738 684.555C276.238 699.655 262.138 721.755 251.838 734.555C244.838 743.355 223.538 765.655 220.838 767.155C217.738 768.755 191.138 756.555 166.438 742.255C139.138 726.455 115.038 707.955 91.9376 685.155C80.1376 673.455 59.2376 649.455 60.1376 648.555C60.3376 648.355 70.5376 643.655 82.9376 638.055C95.3376 632.455 106.638 626.955 108.038 625.955C113.638 622.055 114.538 611.455 109.838 606.355C108.538 604.955 92.4376 591.955 74.2376 577.355C53.7376 561.055 41.2376 550.455 41.6376 549.755C73.3376 495.155 120.438 444.855 169.938 412.855C188.638 400.855 216.338 386.155 220.538 386.055C221.838 386.055 226.538 389.355 232.138 394.255Z" fill="black"/>
<path d="M461.938 663.955C455.138 667.655 454.838 668.755 452.838 704.855C451.838 722.655 450.838 737.455 450.538 737.755C450.338 737.955 435.038 725.555 416.638 710.155C382.038 681.355 379.938 679.855 373.538 681.455C366.338 683.255 361.638 691.755 363.838 699.055C364.938 702.655 369.538 706.855 410.238 740.755C435.138 761.455 456.738 779.055 458.238 779.855C464.138 782.755 472.038 779.655 475.438 773.055C476.338 771.355 477.538 755.155 479.438 721.755C482.038 674.255 482.038 672.955 480.238 669.855C476.238 662.955 468.438 660.455 461.938 663.955Z" fill="black"/>
<path d="M153.038 475.155C141.538 477.055 131.038 485.055 125.738 495.855C122.638 502.155 122.438 503.155 122.438 513.055C122.438 522.955 122.638 523.955 125.738 530.255C131.038 541.155 141.738 549.055 153.738 550.955C180.138 555.155 202.838 532.355 198.038 506.355C194.038 484.755 175.038 471.555 153.038 475.155ZM168.238 506.055C171.838 510.155 171.938 515.655 168.338 519.955C160.338 529.555 145.138 519.955 150.438 508.555C153.938 501.355 162.838 500.055 168.238 506.055Z" fill="black"/>
<path d="M50.1375 263.455C33.4375 267.555 18.3375 281.155 12.9375 297.155C6.63753 315.655 10.6375 335.655 23.3375 349.655C34.1375 361.555 46.2375 366.955 62.0375 367.055C77.5375 367.055 89.6375 362.155 99.6375 351.855C110.638 340.455 114.938 329.855 114.938 314.155C114.838 298.955 110.238 288.155 99.0375 277.055C86.3375 264.555 67.5375 259.255 50.1375 263.455ZM73.1375 291.855C77.7375 293.755 83.7375 299.955 85.6375 304.855C92.2375 322.055 80.8375 339.255 62.9375 339.355C48.0375 339.455 37.8375 329.255 37.8375 314.455C37.8375 301.655 47.1375 291.055 59.4375 289.855C63.1375 289.455 69.5375 290.455 73.1375 291.855Z" fill="black"/>
</svg>
