<svg width="679" height="679" viewBox="0 0 679 679" fill="none" xmlns="http://www.w3.org/2000/svg">
<g clip-path="url(#clip0_8_2)">
<path d="M74.5 562L37.5 296.5C157.5 318.833 406.8 364.8 444 370C481.2 375.2 528.5 350.5 547.5 337.5L640 207.5L604.5 466L485 645L410.5 661L131.5 609L74.5 562Z" fill="#B47236" stroke="#B47236"/>
<path d="M491 637.5L507 359.5L558.5 320.5L640.5 203.5L602.5 479.5L491 637.5Z" fill="#825D4D" stroke="#B47236"/>
<path d="M412 379L97.5 324C88.3 322.391 85.6667 328.996 85.5 332.5C89.1667 400.667 96.8 540.8 98 556C99.2 571.2 110.167 578.667 115.5 580.5C210 599.333 403.2 637.7 420 640.5C436.8 643.3 441 636.333 441 632.5C439.667 562.167 436.9 417.2 436.5 400C436.1 382.8 420 378.833 412 379Z" fill="#FCFCFC" stroke="#B47236"/>
<path d="M148.009 412.496L146.854 424.256C150.337 424.291 154.533 424.423 157.692 424.705C164.152 425.288 181.677 426.787 187.405 427.417C181.182 436.892 172.772 450.722 165.384 462.364C158.34 473.617 149.679 489.302 142.786 496.216C139.268 499.663 136.687 500.477 133.405 500.033C128.982 499.434 125.287 495.592 126.156 489.171C127.932 476.042 143.284 464.605 166.973 467.81C196.369 471.787 220.34 491.16 235.086 507.832L242.007 496.417C228.082 483.344 202.144 462.397 170.036 458.053C141.068 454.134 118.585 467.803 115.669 489.35C114.067 501.195 120.873 509.962 131.433 511.391C138.853 512.395 144.785 510.436 150.764 503.834C158.097 495.817 168.572 477.472 175.979 465.687C184.531 451.877 194.851 434.673 200.421 427.87C201.814 426.17 203.149 424.897 204.788 423.52L198.425 416.847C196.331 417.29 193.828 417.533 191.097 417.309C185.027 417.069 166.217 415.396 158.654 414.373C155.657 413.967 151.538 413.265 148.009 412.496ZM232.969 455.814L221.441 452.947C221.309 457.143 220.51 461.976 219.646 466.218C215.219 487.125 205.434 513.265 169.988 522.856L178.344 531.978C213.852 519.781 225.469 496.213 232.969 455.814ZM296.383 430.681L295.371 442.46C298.549 442.599 302.745 442.731 306.494 442.948C312.707 443.207 337.834 445.444 344.313 445.885C334.099 452.64 308.869 469.425 291.848 478.166C284.454 478.038 274.596 477.866 266.774 477.68L266.325 488.518C283.835 487.98 303.266 488.284 318.709 489.066C310.69 492.486 300.005 501.648 298.364 513.777C295.391 535.753 312.903 549.166 348.057 552.469L351.923 541.076C346.728 540.81 339.84 540.168 331.556 538.03C318.678 534.399 307.776 527.983 309.726 513.571C311.541 500.157 326.823 490.309 340.935 490.184C349.671 490.058 363.39 491.769 377.278 494.374L378.564 483.795C358.158 481.034 332.221 479.414 310.202 478.906C322.854 471.317 345.739 456.831 357.619 449.574C359.848 448.132 363.887 446.208 365.915 445.175L359.881 436.075C358.091 436.415 355.303 436.618 351.839 436.441C343.59 436.196 314.02 433.503 307.741 432.654C303.317 432.055 299.912 431.449 296.383 430.681Z" fill="black"/>
<path d="M189.5 58.5L22 243L519 352C558.667 287.333 640.4 154.5 650 140.5C659.6 126.5 640.333 115.667 629.5 112C515 92.1667 279.1 51.6 251.5 48C223.9 43.2 198.667 53 189.5 58.5Z" fill="#B47236"/>
<path d="M246.5 17.5C208.5 13.1 177.333 28 166.5 36L81 125.5L6.99999 215C-4.60001 228.595 26.6667 247.665 42.5 253C163 272 412.3 312 445.5 320C481.9 324 515 308 527 299.5C567.333 246.167 653.3 139.3 662.5 120.5C671.7 101.7 641.333 83.8333 626.5 79.5C515.667 60.6667 284.5 21.9 246.5 17.5Z" fill="#C4C4C4" fill-opacity="0.4"/>
<path d="M26 293C2.4 287.8 -3.50002 242 1.99999 220L20.5 237.5L39 248.5C163.5 269.333 426.9 318.3 458.5 319.5C490.1 320.7 500 316 531 296.5C566 244 652.4 132 664 110C682.4 126 682.833 145 679.5 147.5C644 200.5 574.5 305 543.5 334.5C528.263 349 490.5 372 458.5 372C325.333 349.5 49.6 298.2 26 293Z" fill="#C4C4C4"/>
</g>
<defs>
<clipPath id="clip0_8_2">
<rect width="679" height="679" fill="white"/>
</clipPath>
</defs>
</svg>
