<svg width="1127" height="1127" viewBox="0 0 1127 1127" fill="none" xmlns="http://www.w3.org/2000/svg">
<g clip-path="url(#clip0_7_97)">
<path d="M657.51 690.73C648.85 691.55 640.27 692.46 631.67 693.15C594.67 696.15 557.67 699.4 520.57 701.72C502.96 702.757 485.306 702.813 467.69 701.89C448.78 700.97 430.69 695.59 413.24 688.2C411.89 687.63 410.5 687.12 408.68 686.42C408.02 688.11 407.38 689.6 406.86 691.13C400.98 708.66 395.02 726.13 389.34 743.75C388.524 746.406 388.414 749.229 389.02 751.94C393.82 772.87 398.9 793.74 403.81 814.65C406.17 824.65 403.02 831.31 394.02 836.19C383.2 842.07 371.82 845.98 359.45 846.82C358.27 846.9 356.55 847.41 356.09 848.26C351.88 856.01 344.47 857.15 336.87 857.66C308.43 859.6 282.483 852.437 259.03 836.17C251.1 830.66 249.16 823.97 252.03 814.78C255.94 802.34 253.56 789.98 251.03 777.78C245.46 750.63 236.51 724.52 225.48 699.13C222.3 691.81 221.81 685.29 226.42 678.42C230.08 672.97 228.92 666.73 227.27 660.97C225.351 654.262 222.941 647.704 220.06 641.35C218.467 638.287 216.225 635.608 213.49 633.5C188.99 613.15 170.28 588.8 160.83 558C151.97 529.1 152.78 500.19 161.33 471.39C163.73 463.34 166.68 455.46 169.49 447.15C153.93 449.42 138.7 449.52 123.6 446.01C84.51 436.93 48.1 407.08 41.89 362.32C36.39 322.63 55.79 282.65 91.75 266.18C127.43 249.84 172.06 261.73 192.3 299.12C210.38 332.53 194.3 375.4 159.19 389.63C140.28 397.29 113.44 391.17 99.66 376.05C96.6686 372.952 94.9728 368.829 94.9189 364.523C94.865 360.216 96.4571 356.052 99.37 352.88C104.77 346.68 114.37 345.61 121.61 350.48C124.61 352.48 127.32 355.24 130.61 356.73C145.38 363.51 161.92 352.91 164.92 335.21C168.16 316.09 156.11 301.86 139.63 295.97C114.18 286.88 91.44 299.64 80.35 323.77C67.61 351.49 77.2 381.62 101.92 399.77C132.79 422.5 181.12 419.98 209.39 387.09C230.03 363.09 254.86 344.09 284.66 332.37C303.41 325.01 323.11 321.75 343.07 319.97C389.13 315.86 435 318.97 480.68 324.75C526.36 330.53 571.97 337.92 617.76 343.29C641.86 346.12 666.28 346.7 690.58 347.29C728.58 348.22 766.58 347.42 804.36 342.9C811.628 341.996 818.845 340.714 825.98 339.06C828.219 338.387 830.123 336.894 831.31 334.88C836.62 325.27 841.31 315.32 846.71 305.74C853.6 293.46 866.28 292.08 876.14 302.29C890.6 317.27 905.04 332.27 919.46 347.29C924.12 352.15 924.46 352.12 928.19 346.55L968.62 285.28C977.91 271.18 987.78 269.89 1000.2 281.21C1008.07 288.176 1014.72 296.418 1019.85 305.59C1026.58 317.96 1026.85 330.44 1022.32 343.67C1015.24 364.28 1008.83 385.13 1002.07 405.85C1001.07 408.99 1001.55 411.39 1003.7 414.05C1012.75 425.115 1017.59 439.026 1017.37 453.32C1017.59 455.869 1018.75 458.245 1020.62 459.99C1033.22 471.6 1047.99 479.99 1063.06 487.92C1080.79 497.22 1089.57 514.85 1086.06 534.7C1081.59 559.7 1068.3 577.17 1043.57 585.4C1032.83 588.972 1022.31 593.176 1012.06 597.99C995.2 605.91 977.62 606.13 959.7 604.36C950.92 603.48 942.14 602.51 933.35 601.76C931.64 601.61 929.5 601.76 928.18 602.64C902.46 620.26 873.62 630.95 844.62 641.42C843.22 641.93 841.79 642.42 840.37 642.86C827.97 647 827.95 646.99 825.04 659.58C819.75 682.39 816.68 705.44 818.36 728.92C821.06 766.83 831.86 801.74 856.36 831.61C864.31 841.31 861.1 853.75 849.78 858.82C828.78 868.23 806.91 869.16 784.69 865.28C776.22 863.8 768 860.9 759.59 858.97C756.33 858.22 752.72 857.6 749.53 858.25C736.35 860.91 723.15 862.06 709.84 859.77C698.9 857.89 688.62 854.34 679.41 847.89C672.08 842.69 667.18 835.89 666.88 826.81C666.51 815.33 661.4 807.32 651.46 801.61C640.35 795.24 639.22 784.25 646.19 773.79C651.73 765.48 656.76 756.79 661.79 748.19C662.981 746.247 663.579 743.998 663.51 741.72C661.99 725.81 660.19 709.92 658.44 694.03C658.218 692.907 657.907 691.803 657.51 690.73ZM880.85 591.27C855.44 575.72 843.37 553.27 837.85 526.67C835.99 517.77 839.06 510.5 845.74 506.8C855.74 501.24 867.57 506.41 870.74 517.51C872.87 525.01 874.74 532.67 877.97 539.73C884.14 553.49 894.46 562.61 909.97 564.45C928.81 566.69 947.65 569.02 966.54 570.76C973.54 571.42 980.79 570.58 987.92 570.33C992.02 570.19 993.5 568.16 993.35 563.89C993.01 554.57 993.13 545.22 993.35 535.89C993.396 532.574 993.833 529.274 994.65 526.06C997.65 514.56 1004.5 505.57 1013.8 498.56C1007.5 492.95 1001.13 487.82 995.42 482.05C988.27 474.83 982.25 466.56 983.27 455.72C984.15 446.26 980.66 438.97 974.69 432.18C972.09 429.18 969.01 425.96 968.14 422.36C965.48 411.27 958.77 402.88 951.14 395.27C947.263 391.406 942.558 388.475 937.38 386.7C931.49 384.8 924.98 384.51 918.7 384.19C909.56 383.71 903.05 379.19 896.76 372.91C886.42 362.56 875.28 353.03 864.82 343.47C856.99 361.38 848.1 381.34 846.91 403.58C845.97 421.23 854.44 431.46 871.91 434.58C874.53 435.05 877.19 435.33 879.75 436.01C886.2 437.73 889.93 442.31 891.37 448.53C892.81 454.75 890.96 459.98 886.37 464.45C880.37 470.34 873.37 469.24 866.2 467.91C847.01 464.35 830.93 456.13 821 438.41C814.59 426.99 812.58 414.58 813.27 401.78C813.73 393.22 815.21 384.78 816.27 375.9C814.86 375.99 813.4 376.04 811.95 376.19C800.35 377.38 788.78 379.43 777.16 379.64C737.52 380.32 697.87 380.53 658.22 380.53C646.553 380.598 634.894 379.893 623.32 378.42C575.46 372.06 527.72 364.8 479.83 358.71C435.16 353.03 390.31 349.63 345.24 353.83C328.44 355.39 311.64 357.48 296.16 364.45C249.62 385.38 218.08 420.89 198.62 467.39C189.74 488.64 186.22 510.9 190.01 533.91C194.87 563.48 210.43 586.91 233.32 605.28C243.89 613.75 250.54 623.96 255.09 636.12C260.64 650.93 265.09 666.12 261.02 681.93C259.36 688.39 260.14 693.5 262.34 699.43C275.81 735.66 289.41 771.91 287.54 811.61C287.57 812.225 287.742 812.825 288.042 813.362C288.342 813.9 288.762 814.361 289.27 814.71C298.715 819.499 308.945 822.547 319.47 823.71C319.31 822.42 319.26 821.64 319.11 820.88C314.78 799.01 310.11 777.2 306.22 755.25C303.82 741.67 301.34 727.82 304.61 714.06C313.01 678.81 326.9 645.44 340.72 612.11C345.54 600.51 361.67 599.66 369.3 609.8C371.2 612.32 372.74 615.13 374.73 617.57C401.9 650.95 437.84 666.95 480.06 668.69C499.96 669.51 520.06 668.23 539.92 666.53C596.83 661.65 653.68 656.1 710.55 650.73C722.13 649.64 729.03 654.39 731.55 665.66C737.39 692.32 743.4 718.94 748.92 745.66C749.85 750.18 749.15 755.21 748.36 759.87C747.62 764.18 745.75 768.29 744.23 772.95C747.16 773.37 749.43 773.74 751.71 774C762.33 775.2 767.57 779.79 769.79 790.19C772.19 801.42 774.51 812.67 776.66 823.95C777.36 827.57 778.5 829.86 782.74 830.29C790.84 831.12 798.87 832.64 806.96 833.61C809.59 833.92 812.33 833.39 815.54 833.22C814.44 831.22 813.8 830.11 813.14 828.96C796.43 799.89 787.3 768.44 784.62 735.14C781.73 699.14 787.47 664.14 798.08 629.77C800.08 623.18 804.08 618.84 810.69 616.77C817.84 614.55 825.04 612.43 832.05 609.83C847.94 603.98 863.71 597.82 880.85 591.27ZM360.9 653.65C360.412 654.36 359.984 655.109 359.62 655.89C353.19 674.07 346.83 692.29 340.37 710.46C336.898 720.416 336.162 731.122 338.24 741.46C341.97 761.58 345.71 781.7 349.65 801.78C352.15 814.6 352.75 814.84 365.51 811.34C366.331 811.052 367.136 810.718 367.92 810.34C363.43 791.53 359.07 772.9 354.48 754.34C353.103 749.005 353.357 743.379 355.21 738.19C362.73 716.31 370.117 694.377 377.37 672.39C377.89 670.82 377.98 668.07 377.04 667.21C371.95 662.52 366.44 658.22 360.9 653.65ZM742.15 824.99C741.08 819.53 740.4 814.59 739.04 809.86C738.678 808.976 738.123 808.183 737.416 807.541C736.708 806.899 735.865 806.424 734.95 806.15C730.25 805.15 725.39 804.91 720.63 804.15C707.99 802.09 702.13 792.63 705.98 780.48C708.69 771.92 711.69 763.48 714.28 754.87C714.971 752.529 715.088 750.056 714.62 747.66C711.85 734.31 708.83 721.01 705.89 707.66C704.33 700.59 702.78 693.51 701.18 686.25L691.87 687.25C691.804 688.582 691.804 689.917 691.87 691.25C693.87 708.61 695.67 725.99 697.92 743.32C698.834 749.622 697.369 756.039 693.81 761.32C689.52 767.98 685.52 774.82 680.92 782.38C695.04 787.79 696.92 799.94 698.63 812.21C698.987 813.664 699.267 815.136 699.47 816.62C699.58 820.37 701.8 822.18 705 823.45C716.96 828.2 729.08 827.55 742.15 824.99ZM976.32 371.81C980.84 358.81 985.06 345.81 989.88 333.06C991.88 327.65 991.88 323.06 987.71 318.18L960.57 359.18L976.32 371.81ZM1027.04 554.51C1040.65 552.4 1048.59 544.87 1052.1 532.51C1054.34 524.62 1052.63 522.51 1044.64 523.18C1042.65 523.332 1040.67 523.606 1038.71 524C1033.13 525.2 1027.4 531 1027.11 536.36C1026.79 542.31 1027.04 548.29 1027.04 554.51Z" fill="black"/>
<path d="M880.85 591.27C863.71 597.82 847.94 603.98 832.07 609.86C825.07 612.46 817.86 614.58 810.71 616.8C804.11 618.8 800.13 623.18 798.1 629.8C787.49 664.15 781.75 699.15 784.64 735.17C787.3 768.47 796.43 799.89 813.1 828.98C813.76 830.13 814.4 831.28 815.5 833.24C812.29 833.41 809.5 833.94 806.92 833.63C798.83 832.63 790.8 831.14 782.7 830.31C778.46 829.88 777.32 827.59 776.62 823.97C774.47 812.69 772.15 801.44 769.75 790.21C767.53 779.81 762.29 775.21 751.67 774.02C749.39 773.76 747.12 773.39 744.19 772.97C745.71 768.31 747.58 764.2 748.32 759.89C749.11 755.23 749.81 750.2 748.88 745.68C743.36 718.96 737.35 692.34 731.51 665.68C729.03 654.41 722.13 649.68 710.51 650.75C653.64 656.12 596.79 661.67 539.88 666.55C520 668.25 499.88 669.55 480.02 668.71C437.8 666.97 401.86 650.97 374.69 617.59C372.69 615.15 371.16 612.34 369.26 609.82C361.63 599.68 345.5 600.53 340.68 612.13C326.86 645.46 312.97 678.83 304.57 714.08C301.3 727.84 303.78 741.69 306.18 755.27C310.08 777.22 314.74 799.03 319.07 820.9C319.22 821.66 319.27 822.44 319.43 823.73C308.905 822.567 298.675 819.519 289.23 814.73C288.723 814.381 288.302 813.92 288.002 813.382C287.702 812.845 287.53 812.245 287.5 811.63C289.37 771.93 275.77 735.63 262.3 699.45C260.1 693.52 259.3 688.45 260.98 681.95C265.05 666.15 260.6 650.95 255.05 636.14C250.5 623.98 243.85 613.77 233.28 605.3C210.39 586.97 194.83 563.5 189.97 533.93C186.18 510.93 189.7 488.66 198.58 467.41C218.04 420.89 249.58 385.41 296.05 364.47C311.53 357.47 328.33 355.41 345.13 353.85C390.2 349.65 435.05 353.05 479.72 358.73C527.61 364.82 575.35 372.08 623.21 378.44C634.784 379.913 646.443 380.618 658.11 380.55C697.76 380.55 737.41 380.34 777.05 379.66C788.67 379.45 800.24 377.4 811.84 376.21C813.29 376.06 814.75 376.01 816.16 375.92C815.1 384.75 813.62 393.24 813.16 401.8C812.47 414.6 814.48 427.01 820.89 438.43C830.82 456.15 846.89 464.37 866.09 467.93C873.27 469.26 880.28 470.36 886.26 464.47C890.81 460 892.62 454.65 891.26 448.55C889.9 442.45 886.09 437.75 879.64 436.03C877.08 435.35 874.42 435.03 871.8 434.6C854.34 431.48 845.87 421.25 846.8 403.6C847.99 381.36 856.88 361.4 864.71 343.49C875.17 353.05 886.31 362.58 896.65 372.93C902.94 379.23 909.45 383.73 918.59 384.21C924.87 384.53 931.38 384.82 937.27 386.72C942.448 388.495 947.153 391.426 951.03 395.29C958.7 402.9 965.41 411.29 968.03 422.38C968.9 425.98 972.03 429.24 974.58 432.2C980.58 438.99 984.04 446.28 983.16 455.74C982.16 466.58 988.16 474.85 995.31 482.07C1001.02 487.84 1007.39 492.97 1013.69 498.58C1004.39 505.58 997.56 514.58 994.54 526.08C993.723 529.294 993.286 532.594 993.24 535.91C993.07 545.24 992.95 554.59 993.24 563.91C993.39 568.18 991.91 570.21 987.81 570.35C980.68 570.6 973.48 571.44 966.43 570.78C947.54 569.04 928.7 566.71 909.86 564.47C894.31 562.63 883.99 553.47 877.86 539.75C874.68 532.69 872.76 525.03 870.63 517.53C867.47 506.43 855.63 501.26 845.63 506.82C838.95 510.52 835.88 517.82 837.74 526.69C843.37 553.28 855.44 575.72 880.85 591.27ZM931.35 462.72C931.27 472.91 939.35 481.42 949.35 481.55C951.8 481.631 954.241 481.223 956.531 480.351C958.822 479.478 960.916 478.159 962.691 476.469C964.467 474.779 965.888 472.753 966.872 470.508C967.857 468.264 968.385 465.846 968.425 463.395C968.466 460.944 968.018 458.51 967.108 456.234C966.198 453.958 964.845 451.886 963.126 450.139C961.408 448.391 959.358 447.003 957.098 446.056C954.838 445.108 952.411 444.62 949.96 444.62C947.547 444.575 945.148 445.009 942.903 445.896C940.658 446.783 938.612 448.107 936.881 449.79C935.151 451.473 933.771 453.482 932.822 455.701C931.872 457.921 931.372 460.306 931.35 462.72V462.72Z" fill="#E4B0E8"/>
<path d="M360.9 653.65C366.44 658.22 371.95 662.52 377.07 667.23C378.01 668.09 377.92 670.84 377.4 672.41C370.12 694.41 362.733 716.343 355.24 738.21C353.387 743.399 353.133 749.025 354.51 754.36C359.1 772.92 363.46 791.55 367.95 810.36C367.166 810.738 366.361 811.072 365.54 811.36C352.78 814.86 352.18 814.62 349.68 801.8C345.74 781.72 342 761.6 338.27 741.48C336.192 731.142 336.928 720.436 340.4 710.48C346.86 692.29 353.22 674.07 359.62 655.89C359.984 655.109 360.412 654.36 360.9 653.65V653.65Z" fill="#E4B0E8"/>
<path d="M742.15 824.99C729.08 827.55 716.96 828.2 705.02 823.45C701.82 822.18 699.6 820.37 699.49 816.62C699.287 815.136 699.007 813.664 698.65 812.21C696.95 799.94 695.06 787.79 680.94 782.38C685.54 774.82 689.54 767.98 693.83 761.32C697.389 756.039 698.854 749.622 697.94 743.32C695.69 725.99 693.86 708.61 691.89 691.25C691.824 689.917 691.824 688.583 691.89 687.25L701.2 686.25C702.8 693.51 704.35 700.59 705.91 707.66C708.85 720.98 711.91 734.28 714.64 747.66C715.108 750.056 714.991 752.529 714.3 754.87C711.71 763.46 708.71 771.87 706 780.48C702.15 792.63 708 802.09 720.65 804.15C725.41 804.93 730.27 805.15 734.97 806.15C735.885 806.424 736.728 806.899 737.436 807.541C738.143 808.183 738.698 808.975 739.06 809.86C740.4 814.59 741.08 819.53 742.15 824.99Z" fill="#E4B0E8"/>
<path d="M976.32 371.81L960.62 359.22L987.76 318.22C991.91 323.14 991.98 327.69 989.93 333.1C985.06 345.8 980.84 358.76 976.32 371.81Z" fill="#E4B0E8"/>
<path d="M1027.04 554.51C1027.04 548.29 1026.79 542.31 1027.11 536.36C1027.4 531.02 1033.11 525.2 1038.71 524C1040.67 523.606 1042.65 523.332 1044.64 523.18C1052.64 522.5 1054.34 524.62 1052.1 532.51C1048.62 544.89 1040.62 552.4 1027.04 554.51Z" fill="#E26EEB"/>
<path d="M931.35 462.72C931.372 460.309 931.871 457.926 932.819 455.708C933.766 453.491 935.143 451.483 936.87 449.801C938.598 448.118 940.641 446.794 942.882 445.905C945.124 445.016 947.519 444.579 949.93 444.62C952.381 444.62 954.807 445.108 957.068 446.056C959.328 447.003 961.378 448.391 963.096 450.139C964.815 451.886 966.168 453.958 967.078 456.234C967.988 458.51 968.436 460.944 968.395 463.395C968.355 465.846 967.827 468.264 966.842 470.508C965.858 472.753 964.437 474.779 962.661 476.469C960.886 478.159 958.792 479.478 956.501 480.351C954.211 481.223 951.77 481.631 949.32 481.55C939.39 481.42 931.27 472.89 931.35 462.72ZM949.35 478.33C957.7 478.59 965.27 471.54 965.46 463.33C965.64 455.53 958.46 447.94 950.46 447.53C948.406 447.404 946.348 447.69 944.407 448.371C942.466 449.053 940.68 450.116 939.156 451.498C937.632 452.88 936.4 454.553 935.532 456.419C934.665 458.284 934.179 460.305 934.105 462.361C934.03 464.417 934.367 466.467 935.097 468.391C935.827 470.314 936.934 472.073 938.354 473.562C939.774 475.051 941.477 476.241 943.364 477.061C945.251 477.882 947.283 478.317 949.34 478.34L949.35 478.33Z" fill="black"/>
<path d="M949.33 478.33C947.273 478.307 945.241 477.872 943.354 477.051C941.467 476.231 939.764 475.041 938.344 473.552C936.924 472.063 935.817 470.304 935.087 468.381C934.357 466.457 934.02 464.407 934.095 462.351C934.169 460.295 934.655 458.274 935.522 456.409C936.39 454.543 937.622 452.87 939.146 451.488C940.67 450.106 942.456 449.043 944.397 448.361C946.338 447.68 948.396 447.394 950.45 447.52C958.45 447.93 965.62 455.52 965.45 463.32C965.25 471.54 957.68 478.59 949.33 478.33Z" fill="black"/>
</g>
<defs>
<clipPath id="clip0_7_97">
<rect width="1045.8" height="608.43" fill="white" transform="translate(41 259)"/>
</clipPath>
</defs>
</svg>
