<svg width="1110" height="1332" viewBox="0 0 1110 1332" fill="none" xmlns="http://www.w3.org/2000/svg">
<g clip-path="url(#clip0_10_34)">
<path fill-rule="evenodd" clip-rule="evenodd" d="M786.318 438.135C796.228 437.135 816.371 441.235 817.668 465.631C818.965 490.027 865.054 958.057 887.936 1189.02C896.944 1206.02 905.232 1244.31 866.315 1261.51C858.147 1265.12 850.222 1269.48 841.571 1274.23C798.704 1297.8 738.008 1331.17 541.463 1332V1332.5C359.652 1331.67 303.506 1298.29 263.852 1274.72C255.849 1269.97 248.519 1265.61 240.963 1262C204.963 1244.8 212.629 1206.5 220.963 1189.5C242.129 958.5 284.763 490.4 285.963 466C287.163 441.6 305.796 437.5 314.963 438.5H541.463V438.135H786.318Z" fill="#C4C4C4" fill-opacity="0.22"/>
<path d="M817.668 465.631L819.665 465.525L817.668 465.631ZM786.318 438.135V440.135H786.419L786.519 440.125L786.318 438.135ZM887.936 1189.02L885.945 1189.22L885.984 1189.61L886.169 1189.96L887.936 1189.02ZM866.315 1261.51L867.123 1263.34L867.123 1263.34L866.315 1261.51ZM841.571 1274.23L840.608 1272.48L840.608 1272.48L841.571 1274.23ZM541.463 1332L541.454 1330L539.463 1330.01V1332H541.463ZM541.463 1332.5L541.454 1334.5L543.463 1334.51V1332.5H541.463ZM263.852 1274.72L264.873 1273L264.873 1273L263.852 1274.72ZM240.963 1262L240.101 1263.8L240.101 1263.8L240.963 1262ZM220.963 1189.5L222.759 1190.38L222.921 1190.05L222.954 1189.68L220.963 1189.5ZM285.963 466L283.965 465.902L285.963 466ZM314.963 438.5L314.746 440.488L314.854 440.5H314.963V438.5ZM541.463 438.5V440.5H543.463V438.5H541.463ZM541.463 438.135V436.135H539.463V438.135H541.463ZM819.665 465.525C818.983 452.691 813.284 444.959 806.269 440.655C799.373 436.424 791.396 435.613 786.117 436.145L786.519 440.125C791.15 439.658 798.199 440.396 804.177 444.064C810.035 447.659 815.056 454.175 815.671 465.737L819.665 465.525ZM889.926 1188.82C867.039 957.806 820.959 489.86 819.665 465.525L815.671 465.737C816.972 490.194 863.069 958.307 885.945 1189.22L889.926 1188.82ZM867.123 1263.34C887.253 1254.44 895.336 1239.95 897.083 1225.43C898.812 1211.07 894.34 1196.83 889.703 1188.09L886.169 1189.96C890.541 1198.21 894.717 1211.62 893.112 1224.95C891.526 1238.13 884.294 1251.38 865.507 1259.68L867.123 1263.34ZM842.535 1275.99C851.201 1271.22 859.048 1266.91 867.123 1263.34L865.507 1259.68C857.245 1263.33 849.243 1267.73 840.608 1272.48L842.535 1275.99ZM541.471 1334C639.848 1333.58 704.33 1325.02 749.636 1313.58C794.983 1302.13 821.05 1287.8 842.535 1275.99L840.608 1272.48C819.225 1284.24 793.51 1298.37 748.656 1309.7C703.761 1321.04 639.622 1329.58 541.454 1330L541.471 1334ZM539.463 1332V1332.5H543.463V1332H539.463ZM541.472 1330.5C450.68 1330.08 391.376 1321.54 349.875 1310.21C308.417 1298.89 284.65 1284.76 264.873 1273L262.83 1276.44C282.707 1288.26 306.841 1302.6 348.821 1314.07C390.76 1325.52 450.435 1334.08 541.454 1334.5L541.472 1330.5ZM264.873 1273C256.887 1268.26 249.477 1263.85 241.825 1260.2L240.101 1263.8C247.56 1267.37 254.812 1271.68 262.83 1276.44L264.873 1273ZM241.825 1260.2C224.52 1251.93 217.8 1238.7 216.326 1225.45C214.837 1212.08 218.711 1198.64 222.759 1190.38L219.167 1188.62C214.881 1197.36 210.756 1211.57 212.35 1225.9C213.959 1240.35 221.406 1254.87 240.101 1263.8L241.825 1260.2ZM222.954 1189.68C244.117 958.732 286.758 490.554 287.96 466.098L283.965 465.902C282.768 490.246 240.142 958.268 218.971 1189.32L222.954 1189.68ZM287.96 466.098C288.532 454.47 293.207 447.957 298.581 444.392C304.063 440.755 310.519 440.027 314.746 440.488L315.18 436.512C310.24 435.973 302.796 436.795 296.37 441.058C289.836 445.393 284.593 453.13 283.965 465.902L287.96 466.098ZM314.963 440.5H541.463V436.5H314.963V440.5ZM539.463 438.135V438.5H543.463V438.135H539.463ZM786.318 436.135H541.463V440.135H786.318V436.135Z" fill="black"/>
<path d="M289.963 990L322.463 699.5H416.463C426.063 679.1 447.796 691 457.463 699.5L576.963 725C573.629 735.333 578.263 753.3 623.463 742.5C668.663 731.7 702.629 759.333 713.963 774.5C711.129 785.333 716.063 810.1 758.463 822.5C800.863 834.9 796.463 868.667 788.963 884L831.963 1202C839.296 1214.5 838.263 1244.6 775.463 1265C712.663 1285.4 425.629 1256.5 289.963 1239.5C283.796 1237.17 268.063 1224.3 254.463 1191.5C237.463 1150.5 266.463 1132 289.963 1104.5C308.763 1082.5 297.796 1019 289.963 990Z" fill="white" stroke="black" stroke-width="4"/>
<path fill-rule="evenodd" clip-rule="evenodd" d="M313.463 123L292.463 430.5C302.63 434.5 327.463 442.5 345.463 442.5C363.413 442.5 487.274 446.478 547.463 448.483V449C609.224 446.997 737.379 442.991 755.907 442.991C774.435 442.991 799.998 434.979 810.463 430.972L788.846 123H547.963H547.463H313.463Z" fill="#EE1111"/>
<path d="M292.463 430.5L290.468 430.364L290.368 431.825L291.731 432.361L292.463 430.5ZM313.463 123V121H311.595L311.468 122.864L313.463 123ZM547.463 448.483H549.463V446.549L547.529 446.484L547.463 448.483ZM547.463 449H545.463V451.066L547.528 450.999L547.463 449ZM810.463 430.972L811.178 432.84L812.562 432.31L812.458 430.832L810.463 430.972ZM788.846 123L790.842 122.86L790.711 121H788.846V123ZM294.458 430.636L315.458 123.136L311.468 122.864L290.468 430.364L294.458 430.636ZM345.463 440.5C327.858 440.5 303.318 432.622 293.195 428.639L291.731 432.361C301.941 436.378 327.068 444.5 345.463 444.5V440.5ZM547.529 446.484C487.371 444.48 363.457 440.5 345.463 440.5V444.5C363.369 444.5 487.177 448.476 547.396 450.482L547.529 446.484ZM545.463 448.483V449H549.463V448.483H545.463ZM547.528 450.999C609.318 448.995 737.421 444.991 755.907 444.991V440.991C737.336 440.991 609.13 444.999 547.398 447.001L547.528 450.999ZM755.907 444.991C774.82 444.991 800.668 436.863 811.178 432.84L809.748 429.105C799.327 433.094 774.051 440.991 755.907 440.991V444.991ZM812.458 430.832L790.842 122.86L786.851 123.14L808.468 431.112L812.458 430.832ZM788.846 121H547.963V125H788.846V121ZM547.963 121H547.463V125H547.963V121ZM313.463 125H547.463V121H313.463V125Z" fill="black"/>
<path fill-rule="evenodd" clip-rule="evenodd" d="M342.65 0H304.453C300.687 6.52529 295.415 24.0934 304.453 42.1634C310.479 54.6117 306.964 97.2101 304.453 116.953C307.323 120.969 318.979 129 342.65 129H552.463H766.422C790.561 129 802.448 120.969 805.374 116.953C802.814 97.2101 799.229 54.6117 805.374 42.1634C814.591 24.0934 809.214 6.52529 805.374 0H766.422H552.463H342.65Z" fill="#EE1111"/>
<path d="M304.453 0V-2H303.298L302.721 -0.9997L304.453 0ZM304.453 42.1634L306.253 41.2921L306.248 41.2804L306.242 41.2688L304.453 42.1634ZM304.453 116.953L302.469 116.701L302.37 117.478L302.826 118.116L304.453 116.953ZM805.374 116.953L806.99 118.131L807.46 117.487L807.357 116.696L805.374 116.953ZM805.374 42.1634L803.592 41.2547L803.586 41.2664L803.58 41.2782L805.374 42.1634ZM805.374 0L807.098 -1.01441L806.517 -2H805.374V0ZM304.453 2H342.65V-2H304.453V2ZM306.242 41.2688C297.579 23.9486 302.663 7.10396 306.186 0.9997L302.721 -0.9997C298.712 5.94662 293.251 24.2381 302.665 43.0581L306.242 41.2688ZM306.437 117.206C307.699 107.287 309.212 91.6357 309.653 76.8826C309.874 69.5079 309.829 62.3197 309.342 56.1669C308.861 50.0863 307.935 44.7651 306.253 41.2921L302.653 43.0348C303.985 45.7859 304.878 50.4575 305.355 56.4822C305.825 62.4347 305.874 69.4641 305.655 76.7629C305.218 91.3569 303.719 106.876 302.469 116.701L306.437 117.206ZM342.65 127C331.04 127 322.466 125.031 316.498 122.627C310.474 120.201 307.218 117.382 306.081 115.791L302.826 118.116C304.558 120.54 308.564 123.744 315.004 126.338C321.499 128.954 330.589 131 342.65 131V127ZM552.463 127H342.65V131H552.463V127ZM552.463 131H766.422V127H552.463V131ZM766.422 131C778.713 131 787.972 128.955 794.588 126.343C801.146 123.753 805.225 120.553 806.99 118.131L803.757 115.776C802.597 117.369 799.27 120.193 793.118 122.622C787.024 125.029 778.271 127 766.422 127V131ZM807.357 116.696C806.083 106.872 804.554 91.3541 804.109 76.7617C803.886 69.4637 803.935 62.4358 804.415 56.4853C804.901 50.462 805.811 45.7955 807.167 43.0487L803.58 41.2782C801.864 44.7555 800.919 50.0818 800.428 56.1638C799.932 62.3186 799.885 69.5083 800.111 76.8838C800.561 91.6385 802.104 107.291 803.39 117.21L807.357 116.696ZM807.156 43.0722C816.761 24.2406 811.188 5.93521 807.098 -1.01441L803.65 1.01441C807.241 7.11538 812.421 23.9462 803.592 41.2547L807.156 43.0722ZM805.374 -2H766.422V2H805.374V-2ZM766.422 -2H552.463V2H766.422V-2ZM342.65 2H552.463V-2H342.65V2Z" fill="black"/>
</g>
<defs>
<clipPath id="clip0_10_34">
<rect width="1110" height="1332" fill="white"/>
</clipPath>
</defs>
</svg>
