<svg width="977" height="977" viewBox="0 0 977 977" fill="none" xmlns="http://www.w3.org/2000/svg">
<g clip-path="url(#clip0_12_62)">
<path d="M667.776 747.321L613.629 709.584C572.629 697.872 487.483 677.738 474.894 690.904C462.305 704.071 512.683 721.507 539.445 728.579L569.116 735.85L607.539 755.924L626.084 751.176L645.774 764.898L642.356 755.812L653.431 763.531L651.778 756.284L669.069 758.583L653.555 744.115L667.776 747.321Z" fill="#EE1111" stroke="black" stroke-width="4"/>
<path d="M49.8442 237.431L34.0082 245.288L52.5926 299.073L36.5946 287.923C-4.26684 257.008 1.71947 293.074 9.82029 314.972C27.4592 333.97 63.7216 372.65 67.6596 375.395C72.582 378.825 115.517 442.269 135.207 455.991C148.558 474.438 432.507 674.771 451.376 687.922C466.119 706.119 554.709 721.543 583.187 726.154C605.97 729.843 621.452 722.553 626.345 718.447L626.444 706.936L720.169 728.986L749.383 852.343C757.082 871.32 777.22 908.068 796.184 903.244C819.888 897.215 822.783 851.086 824.436 818.109C826.089 785.131 863.044 788.947 894.567 780.444C919.785 773.641 918.225 758.74 914.293 752.14L932.603 752.102L898.17 720.182C876.334 711.87 829.053 692.732 814.613 682.669C800.174 672.605 773.394 663.693 761.809 660.494L699.346 602.334L686.144 556.566L628.95 451.494L563.416 354.017L492.798 274.328L449.179 237.225L383.683 198.282L318.3 174.044L238.982 166.302L136.234 198.299L101.057 222.539L48.6011 230.471L49.8442 237.431Z" fill="#E7CDCD"/>
<path d="M34.6173 242.665L45.4811 227.077L61.3422 231.427C70.6234 229.77 96.2959 222.024 124.736 204.303C160.286 182.152 250.505 152.392 330.68 179.016C394.821 200.315 453.526 239.441 474.861 256.342L782.096 685.603L756.466 731.123L624.502 539.202L602.103 582.709L557.28 597.178L288.286 458.462L243.686 442.005L252.275 415.69L313.431 376.036L325.462 310.678L291.74 345.073L294.288 369.399L269.428 391.078L209.639 418.276L199.384 411.129L196.811 394.709L266.667 303.221L266.306 287.123L158.885 357.307L158.748 350.508L154.236 347.363L145.932 333.043L132.085 331.925L81.1689 251.949L70.8891 252.708L65.5811 241.086L54.4809 241.272L63.4807 255.468L71.2879 307.227L80.0269 334.039L62.8109 328.135L48.3039 285.114L34.6173 242.665Z" fill="#EE1111"/>
<path d="M277.332 290.542C234.759 323.644 153.6 400.917 169.552 445.189C156.068 453.343 136.521 450.609 128.433 448.223" stroke="black" stroke-width="4"/>
<path d="M726.706 640.905L724.667 625.466L762.381 659.674C765.223 660.842 773.064 663.584 781.685 665.205C797.656 670.972 818.96 684.885 827.616 691.121L896.94 719.324L932.603 752.102C930.009 752.326 922.609 752.45 913.759 751.158C923.116 760.117 911.004 772.6 903.778 777.721C890.486 781.053 860.389 788.559 846.338 791.93C833.778 787.565 825.327 806.337 822.671 816.269L819.44 858.507L814.17 885.307L803.306 900.895L787.706 904.04L774.58 894.892L751.322 859.18C743.813 826.522 727.881 758.495 724.222 747.656C747.611 759.569 772.276 711.06 781.686 685.317L726.706 640.905Z" fill="#EE1111"/>
<path d="M795.484 702.247L884.647 736.963M780.617 723.577L863.553 757.61M771.854 744.896L810.365 807.693M750.885 766.239L794.368 856.879M724.667 625.466L726.706 640.905L781.686 685.317C772.276 711.06 747.611 759.569 724.222 747.656C727.881 758.495 743.813 826.522 751.322 859.18L774.58 894.892L787.706 904.04L803.306 900.895L814.17 885.307L819.44 858.507L822.671 816.269C825.327 806.337 833.778 787.565 846.338 791.93C860.389 788.559 890.486 781.053 903.778 777.721C911.004 772.6 923.116 760.117 913.759 751.158C922.609 752.45 930.009 752.326 932.603 752.102L896.94 719.324L827.616 691.121C818.96 684.885 797.656 670.972 781.685 665.205C773.064 663.584 765.223 660.842 762.381 659.674L724.667 625.466Z" stroke="black" stroke-width="4"/>
<path d="M296.354 457.38C296.2 449.147 295.776 431.625 295.309 427.399C335.6 446.54 430.755 492.421 489.049 522.809C547.343 553.198 564.85 579.904 566.317 589.459L539.057 579.602L521.742 585.209L490.977 563.767L453.885 573.265L439.925 557.441L392.616 578.101L383.082 562.924L332.416 584.902L267.814 482.589L296.354 457.38Z" fill="#EE1111"/>
<path d="M509.678 276.342L477.16 259.164L723.3 637.922C723.291 633.853 735.489 625.329 737.308 617.822C739.128 610.314 690.109 532.514 665.372 494.552L686.292 509.132L650.368 468.859L672.519 484.297L639.218 444.632L660.946 453.681L636.731 430.711L656.694 437.92L628.751 414.179L645.88 417.584L613.063 394.713L633.884 400.692L606.798 375.72L628.477 380.468L587.866 352.165L614.094 358.255L578.046 337.398L599.812 344.644L575.311 322.084L499.311 274.602L509.678 276.342Z" fill="#EE1111"/>
<path d="M317.559 451.438L526.39 554.929M307.839 465.385L513.214 561.591M304.185 481.122L417.774 542.003M290.972 489.587L340.545 554M295.309 427.399C295.776 431.625 296.2 449.147 296.354 457.38L267.814 482.589L332.416 584.902L383.082 562.924L392.616 578.101L439.925 557.441L453.885 573.265L490.977 563.767L521.742 585.209L539.057 579.602L566.317 589.459C564.85 579.904 547.343 553.198 489.049 522.809C430.755 492.421 335.6 446.54 295.309 427.399ZM477.16 259.164L509.678 276.342L499.311 274.602L575.311 322.084L599.812 344.644L578.046 337.398L614.094 358.255L587.866 352.165L628.477 380.468L606.798 375.72L633.884 400.692L613.063 394.713L645.88 417.584L628.751 414.179L656.694 437.92L636.731 430.711L660.946 453.681L639.218 444.632L672.519 484.297L650.368 468.859L686.292 509.132L665.372 494.552C690.109 532.514 739.128 610.314 737.308 617.822C735.489 625.329 723.291 633.853 723.3 637.922L477.16 259.164Z" stroke="black" stroke-width="4"/>
<circle cx="204.552" cy="234.942" r="40" transform="rotate(34.8742 204.552 234.942)" fill="#C4C4C4"/>
<circle cx="201.27" cy="232.655" r="21" transform="rotate(34.8742 201.27 232.655)" fill="#212121"/>
</g>
<defs>
<clipPath id="clip0_12_62">
<rect width="977" height="977" fill="white"/>
</clipPath>
</defs>
</svg>
