<svg width="1280" height="1280" viewBox="0 0 1280 1280" fill="none" xmlns="http://www.w3.org/2000/svg">
<path fill-rule="evenodd" clip-rule="evenodd" d="M641.5 257.5C606.5 257.5 541 244.022 531 235C525.992 222.45 522.262 344.708 519.518 434.641C518.974 452.464 518.469 469.017 518 483C548.94 464.491 599.303 443.084 641.751 443C684.199 443.083 734.561 464.037 765.5 482.5C765.031 468.535 764.525 451.997 763.98 434.189C761.236 344.457 757.506 222.484 752.5 235C742.5 244 676.5 257.5 641.5 257.5Z" fill="#E9EFF0"/>
<path fill-rule="evenodd" clip-rule="evenodd" d="M643 1278.47V1278.5C727.333 1282.17 905.7 1268.4 944.5 1184C989.055 1087.08 969.049 1028.98 933.714 926.367C930.585 917.279 927.335 907.843 924 898C922.319 893.04 920.55 887.812 918.699 882.345C875.405 754.449 787.873 495.865 761.5 481C734 465.5 676 442.5 643 442.5V443C610 443 551.999 465.985 524.499 481.476C498.126 496.331 410.593 754.752 367.299 882.568C365.448 888.031 363.679 893.256 361.998 898.213C358.663 908.05 355.413 917.48 352.284 926.561C316.948 1029.11 296.943 1087.18 341.498 1184.03C380.298 1268.38 558.666 1282.14 643 1278.47Z" fill="#190D0C"/>
<path d="M643 1278.5H642.5V1278.98L642.978 1279L643 1278.5ZM643 1278.47H643.5V1277.95L642.978 1277.97L643 1278.47ZM944.5 1184L944.046 1183.79L944.046 1183.79L944.5 1184ZM933.714 926.367L934.186 926.204L934.186 926.204L933.714 926.367ZM924 898L923.526 898.16L923.526 898.16L924 898ZM918.699 882.345L918.225 882.505L918.225 882.505L918.699 882.345ZM761.5 481L761.746 480.564L761.746 480.564L761.5 481ZM643 442.5V442H642.5V442.5H643ZM643 443V443.5H643.5V443H643ZM524.499 481.476L524.745 481.911L524.745 481.911L524.499 481.476ZM367.299 882.568L366.825 882.407L366.825 882.407L367.299 882.568ZM361.998 898.213L362.472 898.373L362.472 898.373L361.998 898.213ZM352.284 926.561L352.757 926.724L352.757 926.724L352.284 926.561ZM341.498 1184.03L341.952 1183.82L341.952 1183.82L341.498 1184.03ZM643.5 1278.5V1278.47H642.5V1278.5H643.5ZM944.046 1183.79C934.405 1204.76 916.079 1221.38 892.638 1234.45C869.198 1247.52 840.679 1257.03 810.715 1263.79C750.786 1277.31 685.157 1279.83 643.022 1278L642.978 1279C685.177 1280.83 750.898 1278.31 810.935 1264.76C840.954 1257.99 869.573 1248.46 893.125 1235.32C916.675 1222.19 935.195 1205.44 944.954 1184.21L944.046 1183.79ZM933.241 926.529C950.914 977.855 964.726 1017.97 968.568 1057.37C972.407 1096.74 966.291 1135.4 944.046 1183.79L944.954 1184.21C967.264 1135.68 973.422 1096.84 969.563 1057.27C965.708 1017.74 951.849 977.497 934.186 926.204L933.241 926.529ZM923.526 898.16C926.862 908.005 930.112 917.442 933.241 926.529L934.186 926.204C931.057 917.117 927.808 907.681 924.474 897.84L923.526 898.16ZM918.225 882.505C920.076 887.972 921.846 893.2 923.526 898.16L924.474 897.84C922.793 892.88 921.023 887.652 919.173 882.185L918.225 882.505ZM761.255 481.436C762.812 482.313 764.649 484.128 766.739 486.856C768.821 489.573 771.122 493.154 773.617 497.516C778.607 506.237 784.35 518.039 790.643 532.199C803.228 560.515 817.991 598.217 833.285 639.459C863.874 721.943 896.578 818.556 918.225 882.505L919.173 882.185C897.526 818.238 864.817 721.611 834.223 639.112C818.926 597.863 804.155 560.138 791.557 531.793C785.259 517.621 779.499 505.784 774.485 497.019C771.978 492.637 769.652 489.014 767.533 486.248C765.422 483.493 763.485 481.545 761.746 480.564L761.255 481.436ZM643 443C659.412 443 682.096 448.726 704.148 456.41C726.188 464.089 747.535 473.703 761.255 481.436L761.746 480.564C747.965 472.797 726.562 463.161 704.477 455.465C682.404 447.774 659.588 442 643 442V443ZM643.5 443V442.5H642.5V443H643.5ZM643 442.5C626.412 442.5 603.596 448.27 581.523 455.957C559.438 463.647 538.034 473.278 524.254 481.04L524.745 481.911C538.464 474.183 559.811 464.576 581.852 456.901C603.904 449.222 626.588 443.5 643 443.5V442.5ZM524.254 481.04C522.515 482.02 520.577 483.966 518.466 486.72C516.347 489.484 514.021 493.105 511.514 497.484C506.5 506.243 500.74 518.073 494.442 532.236C481.844 560.564 467.073 598.265 451.776 639.488C421.181 721.935 388.472 818.501 366.825 882.407L367.773 882.728C389.42 818.819 422.125 722.267 452.713 639.835C468.008 598.619 482.771 560.941 495.356 532.642C501.649 518.492 507.393 506.697 512.382 497.981C514.877 493.623 517.178 490.044 519.26 487.328C521.35 484.602 523.187 482.789 524.745 481.911L524.254 481.04ZM366.825 882.407C364.975 887.87 363.205 893.095 361.525 898.052L362.472 898.373C364.152 893.416 365.922 888.191 367.773 882.728L366.825 882.407ZM361.525 898.052C358.19 907.888 354.941 917.317 351.812 926.399L352.757 926.724C355.886 917.643 359.136 908.212 362.472 898.373L361.525 898.052ZM351.812 926.399C334.149 977.659 320.29 1017.87 316.434 1057.38C312.576 1096.93 318.734 1135.74 341.044 1184.24L341.952 1183.82C319.707 1135.46 313.59 1096.82 317.43 1057.48C321.272 1018.11 335.084 978.017 352.757 926.724L351.812 926.399ZM341.044 1184.24C350.803 1205.46 369.323 1222.2 392.874 1235.32C416.426 1248.45 445.045 1257.98 475.064 1264.74C535.102 1278.28 600.823 1280.81 643.022 1278.97L642.978 1277.97C600.843 1279.8 535.214 1277.28 475.284 1263.77C445.319 1257.01 416.8 1247.51 393.36 1234.45C369.919 1221.39 351.593 1204.78 341.952 1183.82L341.044 1184.24Z" fill="black"/>
<path fill-rule="evenodd" clip-rule="evenodd" d="M645 258C604.833 253.333 519.9 240.1 503.5 228.5C503.5 210.5 485.833 154 477 128C453.833 110.167 411.6 72.1 428 62.5C458.371 72.9556 605.252 98.2848 645 96.5239V96.0848C684 98.09 831 73.527 861.5 63C877.901 72.6247 835.667 110.789 812.5 128.668C803.667 154.735 786 211.38 786 229.427C769.6 241.057 685.167 253.321 645 258Z" fill="#FF0000"/>
<path d="M503.5 228.5H501.5V229.535L502.345 230.133L503.5 228.5ZM645 258L644.769 259.987L645 260.013L645.231 259.987L645 258ZM477 128L478.894 127.357L478.699 126.784L478.22 126.415L477 128ZM428 62.5L428.651 60.6089L427.782 60.3099L426.99 60.774L428 62.5ZM645 96.5239L645.088 98.5219L647 98.4372V96.5239H645ZM645 96.0848L645.103 94.0875L643 93.9794V96.0848H645ZM861.5 63L862.513 61.2751L861.718 60.809L860.848 61.1094L861.5 63ZM812.5 128.668L811.278 127.085L810.8 127.454L810.606 128.026L812.5 128.668ZM786 229.427L787.157 231.058L788 230.46V229.427H786ZM502.345 230.133C504.609 231.734 507.923 233.281 511.942 234.781C515.991 236.291 520.875 237.796 526.358 239.278C537.325 242.241 550.79 245.14 564.967 247.815C593.323 253.167 624.645 257.649 644.769 259.987L645.231 256.013C625.188 253.685 593.96 249.216 565.708 243.885C551.581 241.218 538.227 238.342 527.401 235.416C521.988 233.953 517.232 232.485 513.34 231.033C509.418 229.57 506.491 228.166 504.655 226.867L502.345 230.133ZM475.106 128.643C479.515 141.618 486.128 162.209 491.637 181.792C494.392 191.584 496.865 201.105 498.647 209.285C500.44 217.513 501.5 224.234 501.5 228.5H505.5C505.5 223.766 504.352 216.675 502.556 208.434C500.75 200.145 498.254 190.541 495.488 180.708C489.955 161.041 483.319 140.382 478.894 127.357L475.106 128.643ZM426.99 60.774C424.474 62.2468 422.963 64.3703 422.48 66.975C422.016 69.4789 422.539 72.2241 423.615 74.9996C425.763 80.5398 430.426 86.9732 436.162 93.4845C447.686 106.567 464.148 120.631 475.78 129.585L478.22 126.415C466.685 117.536 450.447 103.65 439.163 90.8405C433.495 84.4059 429.227 78.4081 427.344 73.5536C426.405 71.1317 426.138 69.1885 426.413 67.7036C426.67 66.3193 427.427 65.1532 429.01 64.226L426.99 60.774ZM644.911 94.5258C625.284 95.3954 578.844 89.5471 533.306 82.1192C487.783 74.694 443.646 65.7711 428.651 60.6089L427.349 64.3911C442.725 69.6846 487.214 78.6541 532.662 86.0671C578.093 93.4775 624.967 99.4133 645.088 98.5219L644.911 94.5258ZM647 96.5239V96.0848H643V96.5239H647ZM644.897 98.0822C664.648 99.0976 711.369 93.4144 756.751 86.2173C802.148 79.0177 846.706 70.222 862.153 64.8906L860.848 61.1094C845.795 66.305 801.603 75.0542 756.124 82.2667C710.631 89.4814 664.352 95.0772 645.103 94.0875L644.897 98.0822ZM860.488 64.7249C862.072 65.6542 862.83 66.8241 863.087 68.2151C863.363 69.7065 863.095 71.6566 862.155 74.0855C860.273 78.9537 856.004 84.9676 850.335 91.4186C839.051 104.261 822.813 118.183 811.278 127.085L813.722 130.252C825.354 121.275 841.816 107.175 853.34 94.0589C859.076 87.5308 863.739 81.0815 865.886 75.5282C866.962 72.7463 867.484 69.9961 867.02 67.4883C866.539 64.8801 865.029 62.752 862.513 61.2751L860.488 64.7249ZM810.606 128.026C806.181 141.085 799.545 161.798 794.012 181.515C791.246 191.373 788.75 201.002 786.944 209.311C785.149 217.573 784 224.681 784 229.427H788C788 225.149 789.06 218.409 790.853 210.16C792.636 201.959 795.109 192.413 797.863 182.596C803.372 162.962 809.986 142.319 814.395 129.31L810.606 128.026ZM784.843 227.795C783.011 229.095 780.095 230.486 776.189 231.925C772.313 233.353 767.579 234.786 762.189 236.206C751.412 239.045 738.122 241.804 724.056 244.352C695.93 249.447 664.823 253.677 644.769 256.013L645.231 259.987C665.344 257.644 696.537 253.402 724.769 248.288C738.882 245.731 752.287 242.951 763.208 240.074C768.668 238.635 773.535 237.166 777.572 235.678C781.579 234.202 784.89 232.666 787.157 231.058L784.843 227.795Z" fill="black"/>
<path fill-rule="evenodd" clip-rule="evenodd" d="M647 4C586.815 4.33349 458.956 16.4058 429 62.027C477.729 73.5324 599.296 100.545 647 92.5413C693.5 100.545 812 73.5324 859.5 62.027C830.3 16.4058 705.667 4.33349 647 4Z" fill="#FF0000"/>
<path d="M429 62.027L427.328 60.9293L425.76 63.3171L428.54 63.9735L429 62.027ZM647 4L647.011 2.00003L647 1.99997L646.989 2.00003L647 4ZM647 92.5413L647.339 90.5703L647.004 90.5126L646.669 90.5688L647 92.5413ZM859.5 62.027L859.971 63.9708L862.696 63.3107L861.185 60.9489L859.5 62.027ZM430.672 63.1248C437.849 52.1945 451.041 43.0829 468.043 35.5909C485.003 28.1176 505.523 22.3563 527.061 17.9908C570.136 9.26037 617.012 6.16619 647.011 5.99997L646.989 2.00003C616.803 2.1673 569.657 5.27602 526.267 14.0705C504.573 18.4674 483.749 24.299 466.43 31.9306C449.153 39.5436 435.129 49.049 427.328 60.9293L430.672 63.1248ZM646.669 90.5688C634.998 92.527 618.659 92.3583 599.833 90.775C581.042 89.1947 559.911 86.2185 538.719 82.6282C496.335 75.4479 453.809 65.8297 429.46 60.0806L428.54 63.9735C452.92 69.7297 495.542 79.3705 538.051 86.572C559.304 90.1725 580.555 93.1678 599.498 94.7609C618.404 96.351 635.15 96.5574 647.331 94.5137L646.669 90.5688ZM646.661 94.5123C658.547 96.5582 674.881 96.3508 693.313 94.7605C711.781 93.1671 732.499 90.1714 753.217 86.5705C794.656 79.3686 836.206 69.7272 859.971 63.9708L859.029 60.0833C835.294 65.8322 793.844 75.4499 752.533 82.6296C731.876 86.2196 711.281 89.1954 692.969 90.7753C674.619 92.3585 658.703 92.5262 647.339 90.5703L646.661 94.5123ZM861.185 60.9489C853.579 49.0664 839.902 39.5555 823.052 31.9383C806.163 24.3035 785.858 18.4702 764.707 14.0725C722.404 5.27644 676.441 2.16732 647.011 2.00003L646.989 5.99997C676.226 6.16616 721.913 9.25994 763.893 17.9887C784.884 22.3534 804.879 28.113 821.404 35.5832C837.968 43.0709 850.821 52.1771 857.815 63.1052L861.185 60.9489Z" fill="black"/>
</svg>
