<svg width="738" height="738" viewBox="0 0 738 738" fill="none" xmlns="http://www.w3.org/2000/svg">
<g clip-path="url(#clip0_5_70)">
<path d="M567.55 337.25C573.31 338.45 578.55 340.39 582.95 344.04C591.61 351.2 596.42 360.57 594.69 371.62C591.9 389.46 588.27 407.21 584.21 424.82C577.94 452.694 569.009 479.902 557.54 506.07C548.54 526.29 537.95 545.58 523.32 562.4C511.58 575.88 498.01 586.84 480.95 592.95C474.671 595.207 468.121 596.623 461.47 597.16L455.47 597.61C455.47 601.04 455.4 604.38 455.47 607.71C455.72 612.929 454.294 618.09 451.4 622.44C446.54 629.63 439.84 633.73 431.06 634.16C430.15 634.16 429.25 634.16 428.34 634.16C357.447 634.16 286.553 634.16 215.66 634.16C208.4 634.16 202.09 632.16 196.72 627.24C194.327 625.091 192.387 622.485 191.013 619.576C189.639 616.667 188.86 613.514 188.72 610.3C188.5 606.13 188.72 601.94 188.72 597.7C184.11 597.14 179.79 596.7 175.51 596.08C165.656 594.447 156.224 590.874 147.76 585.57C131.34 575.57 118.76 561.67 108.16 545.84C92.16 521.9 81.16 495.62 72.16 468.41C63.548 441.97 56.7621 414.97 51.8501 387.6C50.8501 382.35 49.85 377.09 49.27 371.79C48.5196 364.305 50.4725 356.799 54.7754 350.629C59.0783 344.459 65.4471 340.032 72.7301 338.15C76.0135 337.417 79.3659 337.038 82.7301 337.02C88.5701 336.85 94.4201 336.95 100.26 337.02C101.63 337.02 102.51 336.77 103.08 335.31C107.42 324.38 114.88 315.76 123.87 308.49C141.52 294.22 162.04 286.02 183.93 280.95C198.436 277.519 213.267 275.648 228.17 275.37C229.89 275.37 231.61 275.22 233.49 275.13V154.16C230.67 154.01 227.75 153.82 224.83 153.71L148.31 151.06C138.43 150.72 128.56 150.41 118.69 150.06C111.93 149.8 107.69 145.42 107.69 138.65C107.69 135.437 107.69 132.227 107.69 129.02C107.75 122.23 111.94 117.93 118.69 117.67C119.43 117.67 120.17 117.67 120.91 117.67C160.03 117.67 199.143 117.67 238.25 117.67C239.552 117.748 240.855 117.537 242.066 117.051C243.276 116.565 244.364 115.817 245.25 114.86C252.68 107.42 261.93 104.04 272.47 104.06C294.21 104.107 315.947 104.107 337.68 104.06C342.841 104.009 347.958 105.018 352.714 107.024C357.47 109.029 361.763 111.989 365.33 115.72C365.925 116.366 366.654 116.874 367.466 117.207C368.278 117.541 369.153 117.692 370.03 117.65C471.877 117.61 573.73 117.61 675.59 117.65C679.7 117.65 683.69 118.21 685.99 122.01C687.232 124.008 687.945 126.29 688.06 128.64C688.28 138.64 688.2 148.72 688.15 158.77C688.15 165.91 683.8 170.06 676.56 169.86C665.78 169.55 655 169.12 644.22 168.73L581.28 166.45L489.21 163.15C464.277 162.257 439.343 161.377 414.41 160.51L378.84 159.16C378.03 159.16 377.21 159.16 376.22 159.16V259.59C376.762 259.511 377.297 259.391 377.82 259.23C400.31 250.81 423.64 248.3 447.47 249.12C468.085 249.706 488.427 253.988 507.53 261.76C524.53 268.76 539.77 278.28 551.65 292.53C561.99 304.94 567.88 319.12 567.53 335.53C567.54 336.03 567.55 336.52 567.55 337.25ZM322.25 357.92H112.84C111.44 357.92 110.04 357.82 108.64 357.82C98.93 357.82 89.21 357.7 79.52 358.09C73.63 358.32 69.22 364 69.75 369.88C69.98 372.49 70.57 375.07 71.03 377.66C75.2128 401.894 80.8259 425.859 87.84 449.43C96.36 477.43 106.57 504.77 122.29 529.7C130.81 543.22 140.63 555.7 153.91 564.91C163.47 571.57 173.91 576 185.69 576.5C191.19 576.73 196.69 576.69 202.22 576.7C234.407 576.7 266.6 576.7 298.8 576.7C350.093 576.7 401.387 576.737 452.68 576.81C464.179 576.945 475.491 573.892 485.36 567.99C497.84 560.55 507.45 550.16 515.84 538.52C530.4 518.12 540.53 495.52 548.84 471.97C557.92 446.33 564.63 420.05 570.04 393.43C571.55 386.02 572.95 378.58 574.19 371.12C574.497 369.58 574.471 367.992 574.113 366.462C573.755 364.933 573.073 363.498 572.115 362.255C571.156 361.011 569.942 359.986 568.554 359.251C567.167 358.515 565.638 358.085 564.07 357.99C560.9 357.69 557.67 357.92 554.46 357.92C531.127 357.92 507.827 357.943 484.56 357.99C444.22 357.99 403.887 357.967 363.56 357.92H322.25ZM546.84 336.92C546.84 335.44 546.84 334.23 546.84 333.03C546.38 318.94 539.21 308.3 529.27 299.18C515.77 286.79 499.52 279.64 482.04 275.05C459.344 269.119 435.663 267.971 412.5 271.68C392.9 274.68 374.55 281.13 358.16 292.56C348.78 299.11 340.89 307.04 336.02 317.56C333.23 323.56 331.7 329.91 332.53 336.77H349.11C349.318 336.201 349.492 335.62 349.63 335.03C351.46 325.37 356.15 317.21 362.74 310.03C373.14 298.76 386.29 292.03 400.64 287.44C419.64 281.38 439.01 280.33 458.64 282.98C473.35 284.98 487.33 289.3 500.06 297.11C514.81 306.11 526.19 317.8 529.58 335.58C529.699 335.887 529.891 336.16 530.141 336.374C530.39 336.589 530.689 336.738 531.01 336.81C536.16 336.92 541.32 336.89 546.84 336.89V336.92ZM209.28 597.7C209.28 601.55 209.1 605.17 209.37 608.76C209.435 609.476 209.646 610.171 209.99 610.802C210.334 611.433 210.804 611.987 211.37 612.43C212.883 613.203 214.573 613.565 216.27 613.48C286.717 613.527 357.17 613.527 427.63 613.48C428.632 613.536 429.637 613.492 430.63 613.35C432.74 612.93 434.44 611.68 434.57 609.5C434.8 605.6 434.63 601.67 434.63 597.66L209.28 597.7ZM125.58 336.02L126.12 336.89C134.41 336.89 142.71 336.89 151 336.82C151.71 336.82 152.55 336.01 153.1 335.38C157.892 330.036 163.552 325.54 169.84 322.08C186.59 312.6 204.84 308.08 223.84 306.75C239.115 305.659 254.467 306.804 269.41 310.15C282.1 312.99 294.1 317.52 305.01 324.67C307.18 326.1 309.22 327.73 311.18 329.17C312.41 323.67 313.62 318.27 314.86 312.75C314.65 312.64 314.3 312.43 313.94 312.26C312 311.37 310.07 310.45 308.1 309.62C288.02 301.19 266.93 297.42 245.3 296.28C225.474 295.207 205.597 297.037 186.3 301.71C168.19 306.09 151.17 312.92 136.65 324.9C132.62 328.21 129.25 332.29 125.58 336.02V336.02ZM315.58 124.88V128.25C315.58 179.357 315.58 230.463 315.58 281.57C315.58 284.36 314.77 287.72 316.03 289.77C317.29 291.82 320.62 292.26 323.03 293.4C325.67 294.64 326.33 294.48 327.63 291.95C327.949 291.119 328.078 290.227 328.01 289.34C328.01 235.34 328.01 181.34 328.01 127.34C328.01 126.54 327.93 125.75 327.88 124.85L315.58 124.88ZM294.53 282.78V124.93H282.26V279.8L294.53 282.78ZM508.32 336.89C508.253 336.412 508.146 335.94 508 335.48C507.441 334.023 506.804 332.598 506.09 331.21C500.73 321.76 492.19 316 482.67 311.56C465.38 303.49 447.11 301.43 428.28 303.12C416.213 304.067 404.45 307.376 393.66 312.86C384.85 317.43 377.03 323.21 372.42 332.4C371.76 333.73 371.31 335.17 370.63 336.89C376.01 336.89 380.86 336.89 385.71 336.83C386.099 336.765 386.472 336.624 386.807 336.414C387.141 336.205 387.431 335.932 387.66 335.61C393.78 327.29 402.2 322.18 411.66 318.67C426.66 313.1 442.11 312.5 457.66 315.8C471.19 318.68 483.22 324.54 491.87 335.94C492.256 336.435 492.818 336.762 493.44 336.85C498.27 336.92 503.19 336.89 508.29 336.89H508.32ZM377.32 138.35V138.49L667.32 148.7V138.35H377.32ZM261.11 128.28C258.9 130.124 257.138 132.446 255.956 135.07C254.775 137.695 254.205 140.553 254.29 143.43C254.29 186.797 254.29 230.163 254.29 273.53V275.88L261.12 276.46L261.11 128.28ZM349.2 273.16C350.106 272.475 351.077 271.883 352.1 271.39C354.82 270.39 355.26 268.53 355.26 265.85C355.173 228.31 355.153 190.77 355.2 153.23C355.2 149.03 355.31 144.82 355.06 140.63C354.924 138.394 354.335 136.208 353.327 134.207C352.32 132.206 350.915 130.431 349.2 128.99V273.16ZM188.2 335.98V336.66H282.64V335.95C251.14 324.5 219.65 324.16 188.16 335.99L188.2 335.98ZM453.42 336.76C444.289 334.33 434.681 334.33 425.55 336.76H453.42Z" fill="black"/>
<path d="M322.25 357.92H363.49C403.837 357.92 444.17 357.943 484.49 357.99C507.823 357.99 531.123 357.967 554.39 357.92C557.6 357.92 560.83 357.69 564 357.99C565.574 358.08 567.111 358.508 568.505 359.244C569.9 359.981 571.12 361.008 572.083 362.257C573.045 363.506 573.728 364.948 574.085 366.484C574.441 368.02 574.464 369.615 574.15 371.16C572.91 378.62 571.51 386.06 570 393.47C564.59 420.09 557.88 446.37 548.8 472.01C540.48 495.52 530.35 518.16 515.8 538.56C507.46 550.24 497.8 560.56 485.33 568.04C475.46 573.942 464.149 576.995 452.65 576.86C401.363 576.8 350.07 576.763 298.77 576.75C266.583 576.75 234.39 576.75 202.19 576.75C196.68 576.75 191.19 576.75 185.66 576.55C173.86 576.05 163.44 571.62 153.88 564.96C140.6 555.7 130.78 543.27 122.26 529.75C106.54 504.82 96.33 477.51 87.81 449.48C80.7925 425.909 75.176 401.944 70.99 377.71C70.53 375.12 69.94 372.54 69.71 369.93C69.18 364.05 73.59 358.37 79.48 358.14C89.17 357.75 98.89 357.92 108.6 357.87C110 357.87 111.4 357.97 112.8 357.97H322.25V357.92ZM224.84 436.21C224.9 436.99 224.95 437.55 225 438.11C225.5 444.55 229.89 449.02 235.59 448.88C241.5 448.73 245.72 444.07 245.82 437.48C245.88 433.86 245.9 430.24 245.82 426.62C245.66 419.77 241.39 415.49 234.66 415.45C226.593 415.403 218.527 415.403 210.46 415.45C204.02 415.5 199.58 419.89 199.54 426.34C199.473 438.68 199.473 451.013 199.54 463.34C199.59 469.85 203.98 474.1 210.54 474.12C227.087 474.12 243.63 474.12 260.17 474.12C267.04 474.12 271.17 469.92 271.17 462.99C271.17 442.49 271.17 421.997 271.17 401.51C271.204 400.361 271.097 399.213 270.85 398.09C269.57 393.09 265.72 390.41 259.9 390.4C244.92 390.36 229.94 390.36 214.96 390.4C212.82 390.4 210.67 390.34 208.54 390.54C207.122 390.717 205.757 391.189 204.532 391.925C203.308 392.662 202.252 393.648 201.432 394.818C200.612 395.989 200.047 397.318 199.773 398.72C199.499 400.123 199.521 401.567 199.84 402.96C201.21 408.3 205.02 411.06 211.27 411.08C223.27 411.08 235.27 411.08 247.32 411.08H250.2V453.31H220.44V436.21H224.84ZM399.25 436.26C399.33 437.35 399.4 438.32 399.47 439.26C399.674 441.826 400.821 444.226 402.69 445.997C404.558 447.768 407.016 448.784 409.59 448.85C414.69 448.92 419.52 444.85 419.82 439.72C420.108 434.724 420.108 429.716 419.82 424.72C419.702 422.254 418.643 419.928 416.861 418.22C415.078 416.512 412.709 415.553 410.24 415.54C401.353 415.36 392.463 415.36 383.57 415.54C380.982 415.636 378.533 416.732 376.737 418.597C374.941 420.462 373.938 422.951 373.94 425.54C373.867 438.38 373.867 451.22 373.94 464.06C373.933 465.377 374.187 466.683 374.687 467.902C375.186 469.121 375.922 470.23 376.851 471.163C377.78 472.097 378.885 472.838 380.102 473.344C381.318 473.85 382.623 474.11 383.94 474.11C401.07 474.17 418.19 474.19 435.31 474.05C437.343 473.931 439.309 473.279 441.01 472.16C444.45 469.99 445.47 466.45 445.47 462.54C445.47 442.54 445.47 422.54 445.47 402.54C445.47 394.43 441.47 390.42 433.35 390.42C417.543 390.42 401.737 390.42 385.93 390.42C384.93 390.42 383.93 390.42 382.93 390.53C381.477 390.689 380.076 391.157 378.819 391.903C377.563 392.65 376.482 393.657 375.648 394.856C374.814 396.056 374.247 397.421 373.985 398.859C373.723 400.296 373.772 401.773 374.13 403.19C375.51 408.32 379.38 411.05 385.5 411.07C397.5 411.07 409.5 411.07 421.56 411.07H424.46V453.3H394.78V436.26H399.25ZM158.69 428.26C158.63 427.55 158.57 426.99 158.54 426.43C158.24 420.02 153.95 415.7 147.99 415.81C142.03 415.92 137.84 420.51 137.84 426.95C137.84 430.49 137.84 434.03 137.84 437.57C137.84 444.98 141.84 449.07 149.24 449.12C157.06 449.16 164.88 449.16 172.7 449.12C179.76 449.12 183.99 444.98 184.04 437.95C184.133 425.85 184.133 413.753 184.04 401.66C184.04 394.66 179.8 390.46 172.76 390.44C156.38 390.44 140 390.52 123.62 390.38C122.125 390.317 120.633 390.567 119.239 391.112C117.845 391.657 116.58 392.487 115.525 393.548C114.47 394.609 113.647 395.879 113.109 397.275C112.571 398.672 112.329 400.165 112.4 401.66C112.67 413.92 112.48 426.19 112.48 438.45C112.48 446.93 112.43 455.45 112.48 463.88C112.53 469.88 116.77 474.04 122.79 474.16C124.52 474.16 126.25 474.16 127.98 474.16C143.29 474.16 158.6 474.21 173.92 474.16C175.447 474.141 176.95 473.777 178.316 473.096C179.683 472.415 180.878 471.434 181.812 470.227C182.747 469.019 183.397 467.616 183.713 466.122C184.03 464.629 184.005 463.083 183.64 461.6C182.47 456.49 178.46 453.53 172.44 453.52C160.34 453.52 148.24 453.52 136.14 453.52H133.27V411.25H163.01V428.31L158.69 428.26ZM507.32 428.26C507.25 427.15 507.22 426.17 507.13 425.19C506.89 422.579 505.667 420.156 503.708 418.413C501.749 416.67 499.201 415.736 496.58 415.8C493.995 415.813 491.515 416.821 489.653 418.614C487.791 420.407 486.69 422.847 486.58 425.43C486.4 430.11 486.38 434.81 486.58 439.49C486.627 441.999 487.649 444.391 489.43 446.159C491.211 447.927 493.611 448.932 496.12 448.96C505.093 449.14 514.063 449.14 523.03 448.96C525.578 448.902 528.001 447.842 529.772 446.009C531.543 444.176 532.52 441.719 532.49 439.17C532.57 426.163 532.57 413.163 532.49 400.17C532.373 398.387 531.805 396.663 530.84 395.16C528.7 391.56 525.2 390.42 521.15 390.43C505.15 390.43 489.05 390.43 473 390.43C464.89 390.43 460.94 394.43 460.93 402.62C460.93 412.58 460.93 422.537 460.93 432.49C460.93 442.49 460.93 452.57 460.93 462.62C460.93 469.41 464.93 474.09 470.93 474.12C488.223 474.2 505.51 474.2 522.79 474.12C524.664 474.151 526.503 473.615 528.066 472.581C529.63 471.548 530.844 470.066 531.55 468.33C532.394 466.668 532.753 464.802 532.587 462.945C532.42 461.088 531.735 459.316 530.61 457.83C528.24 454.46 524.77 453.49 520.89 453.49H484.84C483.84 453.49 482.95 453.41 482.03 453.37V411.23H511.68V428.31L507.32 428.26ZM332.97 428.26C332.97 427.48 332.89 426.99 332.88 426.5C332.71 420.25 328.49 415.81 322.67 415.78C316.85 415.75 312.31 420.21 312.18 426.52C312.11 430.47 312.09 434.42 312.18 438.37C312.33 444.77 316.35 448.91 322.71 449.01C331.03 449.13 339.347 449.13 347.66 449.01C353.88 448.93 358.05 445.16 358.17 438.93C358.403 426.097 358.403 413.26 358.17 400.42C358.07 394.24 353.86 390.42 347.65 390.37C330.86 390.29 314.06 390.24 297.27 390.46C294.748 390.641 292.325 391.516 290.27 392.99C287.14 395.11 286.67 398.65 286.68 402.25C286.68 422.17 286.68 442.087 286.68 462C286.668 463.235 286.752 464.468 286.93 465.69C287.27 467.952 288.391 470.024 290.099 471.545C291.807 473.067 293.994 473.943 296.28 474.02C313.727 474.087 331.18 474.087 348.64 474.02C350.673 473.948 352.633 473.244 354.246 472.005C355.859 470.767 357.046 469.055 357.64 467.11C359.92 459.77 354.96 453.44 346.77 453.4C334.67 453.34 322.56 453.4 310.46 453.4H307.54V411.32H337.4V428.32L332.97 428.26Z" fill="white"/>
<path d="M546.84 336.89C541.32 336.89 536.16 336.89 530.99 336.83C530.669 336.758 530.37 336.609 530.121 336.394C529.871 336.18 529.679 335.907 529.56 335.6C526.17 317.82 514.84 306.16 500.04 297.16C487.31 289.35 473.33 285.01 458.62 283.03C439 280.38 419.62 281.43 400.62 287.49C386.27 292.07 373.12 298.81 362.72 310.08C356.13 317.23 351.44 325.39 349.61 335.08C349.472 335.67 349.298 336.251 349.09 336.82H332.52C331.69 329.96 333.22 323.65 336.01 317.61C340.88 307.07 348.77 299.14 358.15 292.61C374.54 281.18 392.89 274.77 412.49 271.73C435.653 268.021 459.334 269.169 482.03 275.1C499.51 279.69 515.76 286.84 529.26 299.23C539.2 308.35 546.37 318.99 546.83 333.08C546.84 334.16 546.84 335.41 546.84 336.89Z" fill="#DBE65A"/>
<path d="M209.28 597.7H434.6C434.6 601.7 434.77 605.64 434.54 609.54C434.41 611.72 432.71 612.97 430.6 613.39C429.607 613.532 428.602 613.576 427.6 613.52C357.153 613.52 286.7 613.52 216.24 613.52C214.543 613.605 212.853 613.243 211.34 612.47C210.774 612.027 210.304 611.473 209.96 610.842C209.616 610.211 209.405 609.516 209.34 608.8C209.1 605.16 209.28 601.55 209.28 597.7Z" fill="white"/>
<path d="M125.58 336.02C129.25 332.29 132.58 328.21 136.64 324.9C151.16 312.9 168.18 306.09 186.29 301.71C205.587 297.037 225.464 295.207 245.29 296.28C266.92 297.42 288.01 301.19 308.09 309.62C310.09 310.45 311.99 311.37 313.93 312.26C314.29 312.43 314.64 312.64 314.85 312.75C313.61 318.27 312.4 323.67 311.17 329.17C309.17 327.73 307.17 326.1 305 324.67C294.09 317.52 282.09 312.99 269.4 310.15C254.457 306.804 239.105 305.659 223.83 306.75C204.83 308.1 186.55 312.6 169.83 322.08C163.549 325.542 157.896 330.038 153.11 335.38C152.56 336.01 151.72 336.81 151.01 336.82C142.72 336.92 134.42 336.89 126.13 336.89L125.58 336.02Z" fill="#DBE65A"/>
<path d="M315.55 124.88H327.89C327.94 125.78 328.02 126.57 328.02 127.37C328.02 181.37 328.02 235.37 328.02 289.37C328.088 290.257 327.959 291.149 327.64 291.98C326.34 294.51 325.64 294.67 323.04 293.43C320.6 292.29 317.18 291.73 316.04 289.8C314.9 287.87 315.59 284.39 315.59 281.6C315.59 230.487 315.59 179.38 315.59 128.28L315.55 124.88Z" fill="#DBE65A"/>
<path d="M294.5 282.78L282.26 279.78V124.93H294.5V282.78Z" fill="#DBE65A"/>
<path d="M508.29 336.89C503.19 336.89 498.29 336.89 493.35 336.89C492.728 336.802 492.165 336.475 491.78 335.98C483.13 324.58 471.1 318.72 457.57 315.84C442.07 312.54 426.57 313.14 411.57 318.71C402.12 322.22 393.7 327.33 387.57 335.65C387.341 335.972 387.051 336.245 386.717 336.454C386.382 336.664 386.009 336.805 385.62 336.87C380.77 336.98 375.92 336.93 370.54 336.93C371.22 335.21 371.67 333.77 372.33 332.44C376.94 323.25 384.76 317.44 393.57 312.9C404.379 307.409 416.163 304.099 428.25 303.16C447.08 301.47 465.35 303.53 482.64 311.6C492.16 316.04 500.7 321.8 506.06 331.25C506.774 332.638 507.411 334.063 507.97 335.52C508.114 335.967 508.221 336.425 508.29 336.89V336.89Z" fill="#DBE75A"/>
<path d="M377.32 138.35H667.32V148.7L377.32 138.49V138.35Z" fill="white"/>
<path d="M261.11 128.28V276.46L254.28 275.88V273.53C254.28 230.157 254.28 186.79 254.28 143.43C254.196 140.552 254.768 137.693 255.951 135.069C257.134 132.444 258.898 130.123 261.11 128.28V128.28Z" fill="#DBE65A"/>
<path d="M349.2 273.16V129C350.915 130.441 352.32 132.216 353.327 134.217C354.334 136.218 354.924 138.404 355.06 140.64C355.31 144.83 355.19 149.04 355.2 153.24C355.2 190.78 355.22 228.32 355.26 265.86C355.26 268.54 354.82 270.44 352.1 271.4C351.078 271.889 350.106 272.479 349.2 273.16V273.16Z" fill="#DBE65A"/>
<path d="M188.16 335.99C219.65 324.13 251.16 324.5 282.63 335.99V336.7H188.17L188.16 335.99Z" fill="#DBE65A"/>
<path d="M453.38 336.77H425.51C434.641 334.34 444.249 334.34 453.38 336.77Z" fill="white"/>
<path d="M224.84 436.21H220.44V453.32H250.2V411.09H247.32C235.32 411.09 223.32 411.09 211.27 411.09C205.02 411.09 201.21 408.31 199.84 402.97C199.526 401.586 199.504 400.153 199.774 398.76C200.044 397.367 200.602 396.046 201.411 394.881C202.22 393.715 203.263 392.731 204.473 391.991C205.683 391.25 207.034 390.77 208.44 390.58C210.57 390.38 212.72 390.44 214.86 390.44C229.84 390.44 244.82 390.44 259.8 390.44C265.62 390.44 269.47 393.18 270.75 398.13C270.997 399.253 271.104 400.401 271.07 401.55C271.07 422.043 271.07 442.537 271.07 463.03C271.07 469.96 266.95 474.15 260.07 474.16C243.53 474.16 226.987 474.16 210.44 474.16C203.93 474.16 199.54 469.89 199.44 463.38C199.36 451.04 199.36 438.707 199.44 426.38C199.44 419.93 203.92 415.54 210.36 415.49C218.427 415.423 226.493 415.423 234.56 415.49C241.29 415.49 245.56 419.81 245.72 426.66C245.8 430.28 245.78 433.9 245.72 437.52C245.62 444.11 241.4 448.77 235.49 448.92C229.79 449.06 225.4 444.59 224.9 438.15C224.91 437.55 224.84 436.99 224.84 436.21Z" fill="#D83131"/>
<path d="M399.21 436.26H394.78V453.32H424.52V411.09H421.62C409.62 411.09 397.62 411.09 385.56 411.09C379.44 411.09 375.56 408.34 374.19 403.21C373.832 401.793 373.783 400.316 374.045 398.879C374.307 397.441 374.874 396.076 375.708 394.876C376.542 393.677 377.623 392.67 378.88 391.923C380.136 391.177 381.537 390.709 382.99 390.55C383.99 390.46 384.99 390.44 385.99 390.44C401.797 390.44 417.603 390.44 433.41 390.44C441.53 390.44 445.52 394.44 445.53 402.56C445.53 422.56 445.53 442.56 445.53 462.56C445.53 466.47 444.53 470.01 441.07 472.18C439.369 473.299 437.403 473.951 435.37 474.07C418.25 474.21 401.13 474.19 384 474.13C382.683 474.13 381.378 473.87 380.162 473.364C378.945 472.858 377.84 472.117 376.911 471.183C375.982 470.25 375.246 469.141 374.747 467.922C374.247 466.703 373.993 465.397 374 464.08C373.92 451.24 373.92 438.4 374 425.56C373.998 422.971 375.001 420.482 376.797 418.617C378.593 416.752 381.042 415.656 383.63 415.56C392.51 415.36 401.4 415.36 410.3 415.56C412.769 415.573 415.138 416.532 416.921 418.24C418.703 419.948 419.762 422.274 419.88 424.74C420.168 429.736 420.168 434.744 419.88 439.74C419.58 444.88 414.75 448.94 409.65 448.87C407.076 448.804 404.619 447.788 402.75 446.017C400.881 444.246 399.734 441.846 399.53 439.28C399.36 438.32 399.29 437.35 399.21 436.26Z" fill="#D83131"/>
<path d="M158.65 428.31H163V411.25H133.26V453.47H136.13C148.23 453.47 160.33 453.47 172.43 453.47C178.43 453.47 182.43 456.47 183.63 461.55C184.003 463.036 184.035 464.588 183.723 466.088C183.41 467.588 182.762 468.998 181.827 470.211C180.891 471.425 179.693 472.41 178.322 473.094C176.951 473.778 175.442 474.143 173.91 474.16C158.59 474.25 143.28 474.16 127.97 474.16C126.24 474.16 124.51 474.16 122.78 474.16C116.78 474.04 112.52 469.88 112.47 463.88C112.4 455.41 112.47 446.88 112.47 438.45C112.47 426.19 112.66 413.92 112.39 401.66C112.319 400.165 112.561 398.672 113.099 397.275C113.637 395.879 114.46 394.609 115.515 393.548C116.57 392.487 117.835 391.657 119.229 391.112C120.623 390.567 122.115 390.317 123.61 390.38C139.99 390.52 156.37 390.38 172.75 390.44C179.75 390.44 183.99 394.62 184.03 401.66C184.11 413.747 184.11 425.843 184.03 437.95C184.03 444.95 179.75 449.07 172.69 449.12C164.87 449.167 157.05 449.167 149.23 449.12C141.86 449.12 137.86 444.98 137.83 437.57C137.83 434.03 137.83 430.49 137.83 426.95C137.89 420.51 142.06 415.95 147.96 415.86C153.86 415.77 158.21 420.07 158.51 426.48C158.53 427.04 158.59 427.6 158.65 428.31Z" fill="#D83131"/>
<path d="M507.28 428.31H511.65V411.23H482V453.35C482.92 453.35 483.86 453.47 484.81 453.47H520.81C524.69 453.47 528.16 454.47 530.53 457.81C531.655 459.296 532.34 461.068 532.507 462.925C532.673 464.782 532.314 466.648 531.47 468.31C530.764 470.046 529.55 471.528 527.986 472.561C526.423 473.595 524.584 474.131 522.71 474.1C505.423 474.18 488.137 474.18 470.85 474.1C464.85 474.1 460.92 469.39 460.85 462.6C460.85 452.6 460.85 442.51 460.85 432.47C460.85 422.43 460.85 412.56 460.85 402.6C460.85 394.42 464.85 390.41 472.92 390.41C488.97 390.41 505.02 390.41 521.07 390.41C525.12 390.41 528.62 391.54 530.76 395.14C531.709 396.665 532.253 398.406 532.34 400.2C532.473 413.2 532.473 426.2 532.34 439.2C532.37 441.749 531.393 444.206 529.622 446.039C527.851 447.872 525.428 448.932 522.88 448.99C513.913 449.19 504.943 449.19 495.97 448.99C493.461 448.962 491.061 447.957 489.28 446.189C487.499 444.421 486.477 442.029 486.43 439.52C486.22 434.84 486.24 430.14 486.43 425.46C486.54 422.877 487.641 420.437 489.503 418.644C491.365 416.851 493.845 415.843 496.43 415.83C499.051 415.766 501.599 416.7 503.558 418.443C505.517 420.186 506.74 422.609 506.98 425.22C507.18 426.22 507.21 427.16 507.28 428.31Z" fill="#D83131"/>
<path d="M332.93 428.34H337.42V411.34H307.56V453.49H310.48C322.58 453.49 334.69 453.49 346.79 453.49C354.98 453.49 359.94 459.86 357.66 467.2C357.066 469.145 355.879 470.857 354.266 472.095C352.653 473.334 350.693 474.038 348.66 474.11C331.207 474.17 313.753 474.17 296.3 474.11C294.014 474.033 291.827 473.157 290.119 471.635C288.411 470.114 287.29 468.042 286.95 465.78C286.772 464.558 286.688 463.325 286.7 462.09C286.7 442.177 286.7 422.26 286.7 402.34C286.7 398.74 287.16 395.2 290.29 393.08C292.345 391.606 294.768 390.731 297.29 390.55C314.08 390.33 330.88 390.38 347.67 390.46C353.88 390.46 358.09 394.33 358.19 400.51C358.41 413.35 358.41 426.187 358.19 439.02C358.07 445.25 353.9 449.02 347.68 449.1C339.36 449.2 331.043 449.2 322.73 449.1C316.37 449 312.35 444.86 312.2 438.46C312.1 434.46 312.12 430.56 312.2 426.61C312.33 420.3 316.75 415.83 322.69 415.87C328.63 415.91 332.69 420.34 332.9 426.59C332.84 427.07 332.89 427.56 332.93 428.34Z" fill="#D83131"/>
</g>
<defs>
<clipPath id="clip0_5_70">
<rect width="639.19" height="530.26" fill="white" transform="translate(49 104)"/>
</clipPath>
</defs>
</svg>
